<?xml version="1.0" encoding="utf-8" standalone="no"?>
<!DOCTYPE svg PUBLIC "-//W3C//DTD SVG 1.1//EN"
  "http://www.w3.org/Graphics/SVG/1.1/DTD/svg11.dtd">
<svg xmlns:xlink="http://www.w3.org/1999/xlink" width="532.8pt" height="331.2pt" viewBox="0 0 532.8 331.2" xmlns="http://www.w3.org/2000/svg" version="1.1">
 <metadata>
  <rdf:RDF xmlns:dc="http://purl.org/dc/elements/1.1/" xmlns:cc="http://creativecommons.org/ns#" xmlns:rdf="http://www.w3.org/1999/02/22-rdf-syntax-ns#">
   <cc:Work>
    <dc:type rdf:resource="http://purl.org/dc/dcmitype/StillImage"/>
    <dc:format>image/svg+xml</dc:format>
    <dc:creator>
     <cc:Agent>
      <dc:title>scripts/generate-blind-ledger-figures.py</dc:title>
     </cc:Agent>
    </dc:creator>
   </cc:Work>
  </rdf:RDF>
 </metadata>
 <defs>
  <style type="text/css">*{stroke-linejoin: round; stroke-linecap: butt}</style>
 </defs>
 <g id="figure_1">
  <g id="patch_1">
   <path d="M 0 331.2 
L 532.8 331.2 
L 532.8 0 
L 0 0 
z
" style="fill: #ffffff"/>
  </g>
  <g id="axes_1">
   <g id="patch_2">
    <path d="M 55.944 273.24 
L 251.759385 273.24 
L 251.759385 66.24 
L 55.944 66.24 
z
" style="fill: #ffffff"/>
   </g>
   <g id="matplotlib.axis_1">
    <g id="xtick_1">
     <g id="line2d_1">
      <defs>
       <path id="md8f8fb0d6d" d="M 0 0 
L 0 3 
" style="stroke: #626a73; stroke-width: 0.7"/>
      </defs>
      <g>
       <use xlink:href="#md8f8fb0d6d" x="70.778499" y="273.24" style="fill: #626a73; stroke: #626a73; stroke-width: 0.7"/>
      </g>
     </g>
     <g id="text_1">
      <text style="font-size: 9.5px; font-family: 'Helvetica Neue', 'Helvetica', 'Arial', 'DejaVu Sans', sans-serif; text-anchor: middle; fill: #626a73" x="70.778499" y="286.957773" transform="rotate(-0 70.778499 286.957773)">1955</text>
     </g>
    </g>
    <g id="xtick_2">
     <g id="line2d_2">
      <g>
       <use xlink:href="#md8f8fb0d6d" x="159.785492" y="273.24" style="fill: #626a73; stroke: #626a73; stroke-width: 0.7"/>
      </g>
     </g>
     <g id="text_2">
      <text style="font-size: 9.5px; font-family: 'Helvetica Neue', 'Helvetica', 'Arial', 'DejaVu Sans', sans-serif; text-anchor: middle; fill: #626a73" x="159.785492" y="286.957773" transform="rotate(-0 159.785492 286.957773)">1985</text>
     </g>
    </g>
    <g id="xtick_3">
     <g id="line2d_3">
      <g>
       <use xlink:href="#md8f8fb0d6d" x="248.792485" y="273.24" style="fill: #626a73; stroke: #626a73; stroke-width: 0.7"/>
      </g>
     </g>
     <g id="text_3">
      <text style="font-size: 9.5px; font-family: 'Helvetica Neue', 'Helvetica', 'Arial', 'DejaVu Sans', sans-serif; text-anchor: middle; fill: #626a73" x="248.792485" y="286.957773" transform="rotate(-0 248.792485 286.957773)">2015</text>
     </g>
    </g>
   </g>
   <g id="matplotlib.axis_2">
    <g id="ytick_1">
     <g id="line2d_4">
      <path d="M 55.944 273.24 
L 251.759385 273.24 
" clip-path="url(#pd8a60b87cf)" style="fill: none; stroke: #d9dee3; stroke-opacity: 0.7; stroke-width: 0.7; stroke-linecap: square"/>
     </g>
     <g id="line2d_5">
      <defs>
       <path id="mc5a57186b2" d="M 0 0 
L -3 0 
" style="stroke: #626a73; stroke-width: 0.7"/>
      </defs>
      <g>
       <use xlink:href="#mc5a57186b2" x="55.944" y="273.24" style="fill: #626a73; stroke: #626a73; stroke-width: 0.7"/>
      </g>
     </g>
     <g id="text_4">
      <text style="font-size: 9.5px; font-family: 'Helvetica Neue', 'Helvetica', 'Arial', 'DejaVu Sans', sans-serif; text-anchor: end; fill: #626a73" x="49.444" y="276.848887" transform="rotate(-0 49.444 276.848887)">0.00</text>
     </g>
    </g>
    <g id="ytick_2">
     <g id="line2d_6">
      <path d="M 55.944 221.49 
L 251.759385 221.49 
" clip-path="url(#pd8a60b87cf)" style="fill: none; stroke: #d9dee3; stroke-opacity: 0.7; stroke-width: 0.7; stroke-linecap: square"/>
     </g>
     <g id="line2d_7">
      <g>
       <use xlink:href="#mc5a57186b2" x="55.944" y="221.49" style="fill: #626a73; stroke: #626a73; stroke-width: 0.7"/>
      </g>
     </g>
     <g id="text_5">
      <text style="font-size: 9.5px; font-family: 'Helvetica Neue', 'Helvetica', 'Arial', 'DejaVu Sans', sans-serif; text-anchor: end; fill: #626a73" x="49.444" y="225.098887" transform="rotate(-0 49.444 225.098887)">0.25</text>
     </g>
    </g>
    <g id="ytick_3">
     <g id="line2d_8">
      <path d="M 55.944 169.74 
L 251.759385 169.74 
" clip-path="url(#pd8a60b87cf)" style="fill: none; stroke: #d9dee3; stroke-opacity: 0.7; stroke-width: 0.7; stroke-linecap: square"/>
     </g>
     <g id="line2d_9">
      <g>
       <use xlink:href="#mc5a57186b2" x="55.944" y="169.74" style="fill: #626a73; stroke: #626a73; stroke-width: 0.7"/>
      </g>
     </g>
     <g id="text_6">
      <text style="font-size: 9.5px; font-family: 'Helvetica Neue', 'Helvetica', 'Arial', 'DejaVu Sans', sans-serif; text-anchor: end; fill: #626a73" x="49.444" y="173.348887" transform="rotate(-0 49.444 173.348887)">0.50</text>
     </g>
    </g>
    <g id="ytick_4">
     <g id="line2d_10">
      <path d="M 55.944 117.99 
L 251.759385 117.99 
" clip-path="url(#pd8a60b87cf)" style="fill: none; stroke: #d9dee3; stroke-opacity: 0.7; stroke-width: 0.7; stroke-linecap: square"/>
     </g>
     <g id="line2d_11">
      <g>
       <use xlink:href="#mc5a57186b2" x="55.944" y="117.99" style="fill: #626a73; stroke: #626a73; stroke-width: 0.7"/>
      </g>
     </g>
     <g id="text_7">
      <text style="font-size: 9.5px; font-family: 'Helvetica Neue', 'Helvetica', 'Arial', 'DejaVu Sans', sans-serif; text-anchor: end; fill: #626a73" x="49.444" y="121.598887" transform="rotate(-0 49.444 121.598887)">0.75</text>
     </g>
    </g>
    <g id="ytick_5">
     <g id="line2d_12">
      <path d="M 55.944 66.24 
L 251.759385 66.24 
" clip-path="url(#pd8a60b87cf)" style="fill: none; stroke: #d9dee3; stroke-opacity: 0.7; stroke-width: 0.7; stroke-linecap: square"/>
     </g>
     <g id="line2d_13">
      <g>
       <use xlink:href="#mc5a57186b2" x="55.944" y="66.24" style="fill: #626a73; stroke: #626a73; stroke-width: 0.7"/>
      </g>
     </g>
     <g id="text_8">
      <text style="font-size: 9.5px; font-family: 'Helvetica Neue', 'Helvetica', 'Arial', 'DejaVu Sans', sans-serif; text-anchor: end; fill: #626a73" x="49.444" y="69.848887" transform="rotate(-0 49.444 69.848887)">1.00</text>
     </g>
    </g>
    <g id="text_9">
     <!-- $R^2$ : accounting $\rightarrow$ market cap -->
     <g style="fill: #202124" transform="translate(21.769195 249.9075) rotate(-90)">
      <text>
       <tspan x="0" y="-0.205687" style="font-style: oblique; font-size: 10.5px; font-family: 'DejaVu Sans'; fill: #202124">R</tspan>
       <tspan x="8.032568" y="-4.542187" style="font-size: 7.35px; font-family: 'DejaVu Sans'; fill: #202124">2</tspan>
       <tspan x="12.995972" y="-0.205687" style="font-size: 10.5px; font-family: 'DejaVu Sans'; fill: #202124"> </tspan>
       <tspan x="16.333618" y="-0.205687" style="font-size: 10.5px; font-family: 'DejaVu Sans'; fill: #202124">:</tspan>
       <tspan x="19.871216" y="-0.205687" style="font-size: 10.5px; font-family: 'DejaVu Sans'; fill: #202124"> </tspan>
       <tspan x="23.208862" y="-0.205687" style="font-size: 10.5px; font-family: 'DejaVu Sans'; fill: #202124">a</tspan>
       <tspan x="29.643188" y="-0.205687" style="font-size: 10.5px; font-family: 'DejaVu Sans'; fill: #202124">c</tspan>
       <tspan x="35.416138" y="-0.205687" style="font-size: 10.5px; font-family: 'DejaVu Sans'; fill: #202124">c</tspan>
       <tspan x="41.189087" y="-0.205687" style="font-size: 10.5px; font-family: 'DejaVu Sans'; fill: #202124">o</tspan>
       <tspan x="47.613159" y="-0.205687" style="font-size: 10.5px; font-family: 'DejaVu Sans'; fill: #202124">u</tspan>
       <tspan x="54.267944" y="-0.205687" style="font-size: 10.5px; font-family: 'DejaVu Sans'; fill: #202124">n</tspan>
       <tspan x="60.922729" y="-0.205687" style="font-size: 10.5px; font-family: 'DejaVu Sans'; fill: #202124">t</tspan>
       <tspan x="65.039673" y="-0.205687" style="font-size: 10.5px; font-family: 'DejaVu Sans'; fill: #202124">i</tspan>
       <tspan x="67.956909" y="-0.205687" style="font-size: 10.5px; font-family: 'DejaVu Sans'; fill: #202124">n</tspan>
       <tspan x="74.611694" y="-0.205687" style="font-size: 10.5px; font-family: 'DejaVu Sans'; fill: #202124">g</tspan>
       <tspan x="81.276733" y="-0.205687" style="font-size: 10.5px; font-family: 'DejaVu Sans'; fill: #202124"> </tspan>
       <tspan x="86.660034" y="-0.205687" style="font-size: 10.5px; font-family: 'DejaVu Sans'; fill: #202124">→</tspan>
       <tspan x="97.50354" y="-0.205687" style="font-size: 10.5px; font-family: 'DejaVu Sans'; fill: #202124"> </tspan>
       <tspan x="100.841187" y="-0.205687" style="font-size: 10.5px; font-family: 'DejaVu Sans'; fill: #202124">m</tspan>
       <tspan x="111.069458" y="-0.205687" style="font-size: 10.5px; font-family: 'DejaVu Sans'; fill: #202124">a</tspan>
       <tspan x="117.503784" y="-0.205687" style="font-size: 10.5px; font-family: 'DejaVu Sans'; fill: #202124">r</tspan>
       <tspan x="121.820679" y="-0.205687" style="font-size: 10.5px; font-family: 'DejaVu Sans'; fill: #202124">k</tspan>
       <tspan x="127.901245" y="-0.205687" style="font-size: 10.5px; font-family: 'DejaVu Sans'; fill: #202124">e</tspan>
       <tspan x="134.361206" y="-0.205687" style="font-size: 10.5px; font-family: 'DejaVu Sans'; fill: #202124">t</tspan>
       <tspan x="138.478149" y="-0.205687" style="font-size: 10.5px; font-family: 'DejaVu Sans'; fill: #202124"> </tspan>
       <tspan x="141.815796" y="-0.205687" style="font-size: 10.5px; font-family: 'DejaVu Sans'; fill: #202124">c</tspan>
       <tspan x="147.588745" y="-0.205687" style="font-size: 10.5px; font-family: 'DejaVu Sans'; fill: #202124">a</tspan>
       <tspan x="154.023071" y="-0.205687" style="font-size: 10.5px; font-family: 'DejaVu Sans'; fill: #202124">p</tspan>
      </text>
     </g>
    </g>
   </g>
   <g id="FillBetweenPolyCollection_1">
    <defs>
     <path id="m3e8f822463" d="M 64.844699 -235.98 
L 64.844699 -57.96 
L 65.739242 -57.96 
L 66.633785 -57.96 
L 67.528327 -57.96 
L 68.42287 -57.96 
L 69.317413 -57.96 
L 70.211955 -57.96 
L 71.106498 -57.96 
L 72.00104 -57.96 
L 72.895583 -57.96 
L 73.790126 -57.96 
L 74.684668 -57.96 
L 75.579211 -57.96 
L 76.473754 -57.96 
L 77.368296 -57.96 
L 78.262839 -57.96 
L 79.157382 -57.96 
L 80.051924 -57.96 
L 80.946467 -57.96 
L 81.84101 -57.96 
L 82.735552 -57.96 
L 83.630095 -57.96 
L 84.524637 -57.96 
L 85.41918 -57.96 
L 86.313723 -57.96 
L 87.208265 -57.96 
L 88.102808 -57.96 
L 88.997351 -57.96 
L 89.891893 -57.96 
L 90.786436 -57.96 
L 91.680979 -57.96 
L 92.575521 -57.96 
L 93.470064 -57.96 
L 94.364607 -57.96 
L 95.259149 -57.96 
L 96.153692 -57.96 
L 97.048234 -57.96 
L 97.942777 -57.96 
L 98.83732 -57.96 
L 99.731862 -57.96 
L 100.626405 -57.96 
L 101.520948 -57.96 
L 102.41549 -57.96 
L 103.310033 -57.96 
L 104.204576 -57.96 
L 105.099118 -57.96 
L 105.993661 -57.96 
L 106.888204 -57.96 
L 107.782746 -57.96 
L 108.677289 -57.96 
L 109.571831 -57.96 
L 110.466374 -57.96 
L 111.360917 -57.96 
L 112.255459 -57.96 
L 113.150002 -57.96 
L 114.044545 -57.96 
L 114.939087 -57.96 
L 115.83363 -57.96 
L 116.728173 -57.96 
L 117.622715 -57.96 
L 118.517258 -57.96 
L 119.411801 -57.96 
L 120.306343 -57.96 
L 121.200886 -57.96 
L 122.095428 -57.96 
L 122.989971 -57.96 
L 123.884514 -57.96 
L 124.779056 -57.96 
L 125.673599 -57.96 
L 126.568142 -57.96 
L 127.462684 -57.96 
L 128.357227 -57.96 
L 129.25177 -57.96 
L 130.146312 -57.96 
L 131.040855 -57.96 
L 131.935398 -57.96 
L 132.82994 -57.96 
L 133.724483 -57.96 
L 134.619025 -57.96 
L 135.513568 -57.96 
L 136.408111 -57.96 
L 137.302653 -57.96 
L 138.197196 -57.96 
L 139.091739 -57.96 
L 139.986281 -57.96 
L 140.880824 -57.96 
L 141.775367 -57.96 
L 142.669909 -57.96 
L 143.564452 -57.96 
L 144.458995 -57.96 
L 145.353537 -57.96 
L 146.24808 -57.96 
L 147.142622 -57.96 
L 148.037165 -57.96 
L 148.931708 -57.96 
L 149.82625 -57.96 
L 150.720793 -57.96 
L 151.615336 -57.96 
L 152.509878 -57.96 
L 153.404421 -57.96 
L 154.298964 -57.96 
L 155.193506 -57.96 
L 156.088049 -57.96 
L 156.982592 -57.96 
L 157.877134 -57.96 
L 158.771677 -57.96 
L 159.666219 -57.96 
L 160.560762 -57.96 
L 161.455305 -57.96 
L 162.349847 -57.96 
L 163.24439 -57.96 
L 164.138933 -57.96 
L 165.033475 -57.96 
L 165.928018 -57.96 
L 166.822561 -57.96 
L 167.717103 -57.96 
L 168.611646 -57.96 
L 169.506189 -57.96 
L 170.400731 -57.96 
L 171.295274 -57.96 
L 172.189816 -57.96 
L 173.084359 -57.96 
L 173.978902 -57.96 
L 174.873444 -57.96 
L 175.767987 -57.96 
L 176.66253 -57.96 
L 177.557072 -57.96 
L 178.451615 -57.96 
L 179.346158 -57.96 
L 180.2407 -57.96 
L 181.135243 -57.96 
L 182.029786 -57.96 
L 182.924328 -57.96 
L 183.818871 -57.96 
L 184.713414 -57.96 
L 185.607956 -57.96 
L 186.502499 -57.96 
L 187.397041 -57.96 
L 188.291584 -57.96 
L 189.186127 -57.96 
L 190.080669 -57.96 
L 190.975212 -57.96 
L 191.869755 -57.96 
L 192.764297 -57.96 
L 193.65884 -57.96 
L 194.553383 -57.96 
L 195.447925 -57.96 
L 196.342468 -57.96 
L 197.237011 -57.96 
L 198.131553 -57.96 
L 199.026096 -57.96 
L 199.920638 -57.96 
L 200.815181 -57.96 
L 201.709724 -57.96 
L 202.604266 -57.96 
L 203.498809 -57.96 
L 204.393352 -57.96 
L 205.287894 -57.96 
L 206.182437 -57.96 
L 207.07698 -57.96 
L 207.971522 -57.96 
L 208.866065 -57.96 
L 209.760608 -57.96 
L 210.65515 -57.96 
L 211.549693 -57.96 
L 212.444235 -57.96 
L 213.338778 -57.96 
L 214.233321 -57.96 
L 215.127863 -57.96 
L 216.022406 -57.96 
L 216.916949 -57.96 
L 217.811491 -57.96 
L 218.706034 -57.96 
L 219.600577 -57.96 
L 220.495119 -57.96 
L 221.389662 -57.96 
L 222.284205 -57.96 
L 223.178747 -57.96 
L 224.07329 -57.96 
L 224.967832 -57.96 
L 225.862375 -57.96 
L 226.756918 -57.96 
L 227.65146 -57.96 
L 228.546003 -57.96 
L 229.440546 -57.96 
L 230.335088 -57.96 
L 231.229631 -57.96 
L 232.124174 -57.96 
L 233.018716 -57.96 
L 233.913259 -57.96 
L 234.807802 -57.96 
L 235.702344 -57.96 
L 236.596887 -57.96 
L 237.491429 -57.96 
L 238.385972 -57.96 
L 239.280515 -57.96 
L 240.175057 -57.96 
L 241.0696 -57.96 
L 241.964143 -57.96 
L 242.858685 -57.96 
L 242.858685 -161.46 
L 242.858685 -161.46 
L 241.964143 -161.834472 
L 241.0696 -162.208945 
L 240.175057 -162.583417 
L 239.280515 -162.957889 
L 238.385972 -163.332362 
L 237.491429 -163.706834 
L 236.596887 -164.081307 
L 235.702344 -164.455779 
L 234.807802 -164.830251 
L 233.913259 -165.204724 
L 233.018716 -165.579196 
L 232.124174 -165.953668 
L 231.229631 -166.328141 
L 230.335088 -166.702613 
L 229.440546 -167.077085 
L 228.546003 -167.451558 
L 227.65146 -167.82603 
L 226.756918 -168.200503 
L 225.862375 -168.574975 
L 224.967832 -168.949447 
L 224.07329 -169.32392 
L 223.178747 -169.698392 
L 222.284205 -170.072864 
L 221.389662 -170.447337 
L 220.495119 -170.821809 
L 219.600577 -171.196281 
L 218.706034 -171.570754 
L 217.811491 -171.945226 
L 216.916949 -172.319698 
L 216.022406 -172.694171 
L 215.127863 -173.068643 
L 214.233321 -173.443116 
L 213.338778 -173.817588 
L 212.444235 -174.19206 
L 211.549693 -174.566533 
L 210.65515 -174.941005 
L 209.760608 -175.315477 
L 208.866065 -175.68995 
L 207.971522 -176.064422 
L 207.07698 -176.438894 
L 206.182437 -176.813367 
L 205.287894 -177.187839 
L 204.393352 -177.562312 
L 203.498809 -177.936784 
L 202.604266 -178.311256 
L 201.709724 -178.685729 
L 200.815181 -179.060201 
L 199.920638 -179.434673 
L 199.026096 -179.809146 
L 198.131553 -180.183618 
L 197.237011 -180.55809 
L 196.342468 -180.932563 
L 195.447925 -181.307035 
L 194.553383 -181.681508 
L 193.65884 -182.05598 
L 192.764297 -182.430452 
L 191.869755 -182.804925 
L 190.975212 -183.179397 
L 190.080669 -183.553869 
L 189.186127 -183.928342 
L 188.291584 -184.302814 
L 187.397041 -184.677286 
L 186.502499 -185.051759 
L 185.607956 -185.426231 
L 184.713414 -185.800704 
L 183.818871 -186.175176 
L 182.924328 -186.549648 
L 182.029786 -186.924121 
L 181.135243 -187.298593 
L 180.2407 -187.673065 
L 179.346158 -188.047538 
L 178.451615 -188.42201 
L 177.557072 -188.796482 
L 176.66253 -189.170955 
L 175.767987 -189.545427 
L 174.873444 -189.919899 
L 173.978902 -190.294372 
L 173.084359 -190.668844 
L 172.189816 -191.043317 
L 171.295274 -191.417789 
L 170.400731 -191.792261 
L 169.506189 -192.166734 
L 168.611646 -192.541206 
L 167.717103 -192.915678 
L 166.822561 -193.290151 
L 165.928018 -193.664623 
L 165.033475 -194.039095 
L 164.138933 -194.413568 
L 163.24439 -194.78804 
L 162.349847 -195.162513 
L 161.455305 -195.536985 
L 160.560762 -195.911457 
L 159.666219 -196.28593 
L 158.771677 -196.660402 
L 157.877134 -197.034874 
L 156.982592 -197.409347 
L 156.088049 -197.783819 
L 155.193506 -198.158291 
L 154.298964 -198.532764 
L 153.404421 -198.907236 
L 152.509878 -199.281709 
L 151.615336 -199.656181 
L 150.720793 -200.030653 
L 149.82625 -200.405126 
L 148.931708 -200.779598 
L 148.037165 -201.15407 
L 147.142622 -201.528543 
L 146.24808 -201.903015 
L 145.353537 -202.277487 
L 144.458995 -202.65196 
L 143.564452 -203.026432 
L 142.669909 -203.400905 
L 141.775367 -203.775377 
L 140.880824 -204.149849 
L 139.986281 -204.524322 
L 139.091739 -204.898794 
L 138.197196 -205.273266 
L 137.302653 -205.647739 
L 136.408111 -206.022211 
L 135.513568 -206.396683 
L 134.619025 -206.771156 
L 133.724483 -207.145628 
L 132.82994 -207.520101 
L 131.935398 -207.894573 
L 131.040855 -208.269045 
L 130.146312 -208.643518 
L 129.25177 -209.01799 
L 128.357227 -209.392462 
L 127.462684 -209.766935 
L 126.568142 -210.141407 
L 125.673599 -210.515879 
L 124.779056 -210.890352 
L 123.884514 -211.264824 
L 122.989971 -211.639296 
L 122.095428 -212.013769 
L 121.200886 -212.388241 
L 120.306343 -212.762714 
L 119.411801 -213.137186 
L 118.517258 -213.511658 
L 117.622715 -213.886131 
L 116.728173 -214.260603 
L 115.83363 -214.635075 
L 114.939087 -215.009548 
L 114.044545 -215.38402 
L 113.150002 -215.758492 
L 112.255459 -216.132965 
L 111.360917 -216.507437 
L 110.466374 -216.88191 
L 109.571831 -217.256382 
L 108.677289 -217.630854 
L 107.782746 -218.005327 
L 106.888204 -218.379799 
L 105.993661 -218.754271 
L 105.099118 -219.128744 
L 104.204576 -219.503216 
L 103.310033 -219.877688 
L 102.41549 -220.252161 
L 101.520948 -220.626633 
L 100.626405 -221.001106 
L 99.731862 -221.375578 
L 98.83732 -221.75005 
L 97.942777 -222.124523 
L 97.048234 -222.498995 
L 96.153692 -222.873467 
L 95.259149 -223.24794 
L 94.364607 -223.622412 
L 93.470064 -223.996884 
L 92.575521 -224.371357 
L 91.680979 -224.745829 
L 90.786436 -225.120302 
L 89.891893 -225.494774 
L 88.997351 -225.869246 
L 88.102808 -226.243719 
L 87.208265 -226.618191 
L 86.313723 -226.992663 
L 85.41918 -227.367136 
L 84.524637 -227.741608 
L 83.630095 -228.11608 
L 82.735552 -228.490553 
L 81.84101 -228.865025 
L 80.946467 -229.239497 
L 80.051924 -229.61397 
L 79.157382 -229.988442 
L 78.262839 -230.362915 
L 77.368296 -230.737387 
L 76.473754 -231.111859 
L 75.579211 -231.486332 
L 74.684668 -231.860804 
L 73.790126 -232.235276 
L 72.895583 -232.609749 
L 72.00104 -232.984221 
L 71.106498 -233.358693 
L 70.211955 -233.733166 
L 69.317413 -234.107638 
L 68.42287 -234.482111 
L 67.528327 -234.856583 
L 66.633785 -235.231055 
L 65.739242 -235.605528 
L 64.844699 -235.98 
z
" style="stroke: #dce8ef; stroke-opacity: 0.8"/>
    </defs>
    <g clip-path="url(#pd8a60b87cf)">
     <use xlink:href="#m3e8f822463" x="0" y="331.2" style="fill: #dce8ef; fill-opacity: 0.8; stroke: #dce8ef; stroke-opacity: 0.8"/>
    </g>
   </g>
   <g id="patch_3">
    <path d="M 55.944 273.24 
L 55.944 66.24 
" style="fill: none; stroke: #d9dee3; stroke-width: 0.8; stroke-linejoin: miter; stroke-linecap: square"/>
   </g>
   <g id="patch_4">
    <path d="M 55.944 273.24 
L 251.759385 273.24 
" style="fill: none; stroke: #d9dee3; stroke-width: 0.8; stroke-linejoin: miter; stroke-linecap: square"/>
   </g>
   <g id="line2d_14">
    <path d="M 64.844699 95.22 
L 242.858685 169.74 
L 242.858685 169.74 
" clip-path="url(#pd8a60b87cf)" style="fill: none; stroke: #2d6282; stroke-width: 2.4; stroke-linecap: square"/>
   </g>
   <g id="text_10">
    <text style="font-size: 8.6px; font-family: 'Helvetica Neue', 'Helvetica', 'Arial', 'DejaVu Sans', sans-serif; text-anchor: start; fill: #2d6282" x="76.712298" y="82.963984" transform="rotate(-0 76.712298 82.963984)">0.80-0.90</text>
   </g>
   <g id="patch_5">
    <path d="M 187.814352 203.788647 
Q 214.48485 187.291138 240.299602 171.322967 
" style="fill: none; stroke: #2d6282; stroke-width: 0.9; stroke-linecap: round"/>
    <path d="M 236.469239 171.669841 
L 240.299602 171.322967 
L 238.278884 174.595381 
z
" style="fill: #2d6282; stroke: #2d6282; stroke-width: 0.9; stroke-linecap: round"/>
   </g>
   <g id="text_11">
    <text style="font-size: 8.6px; font-family: 'Helvetica Neue', 'Helvetica', 'Arial', 'DejaVu Sans', sans-serif; text-anchor: start; fill: #2d6282" x="162.752392" y="213.373984" transform="rotate(-0 162.752392 213.373984)">~0.50</text>
   </g>
   <g id="text_12">
    <text style="font-weight: 700; font-size: 10.5px; font-family: 'Helvetica Neue', 'Helvetica', 'Arial', 'DejaVu Sans', sans-serif; text-anchor: start; fill: #202124" x="55.944" y="58.24" transform="rotate(-0 55.944 58.24)">(A) Explanatory power</text>
   </g>
   <g id="PathCollection_1">
    <defs>
     <path id="m7c46b639d2" d="M 0 2.645751 
C 0.701661 2.645751 1.374679 2.366978 1.870829 1.870829 
C 2.366978 1.374679 2.645751 0.701661 2.645751 0 
C 2.645751 -0.701661 2.366978 -1.374679 1.870829 -1.870829 
C 1.374679 -2.366978 0.701661 -2.645751 0 -2.645751 
C -0.701661 -2.645751 -1.374679 -2.366978 -1.870829 -1.870829 
C -2.366978 -1.374679 -2.645751 -0.701661 -2.645751 0 
C -2.645751 0.701661 -2.366978 1.374679 -1.870829 1.870829 
C -1.374679 2.366978 -0.701661 2.645751 0 2.645751 
z
" style="stroke: #ffffff; stroke-width: 0.9"/>
    </defs>
    <g clip-path="url(#pd8a60b87cf)">
     <use xlink:href="#m7c46b639d2" x="64.844699" y="95.22" style="fill: #2d6282; stroke: #ffffff; stroke-width: 0.9"/>
     <use xlink:href="#m7c46b639d2" x="242.858685" y="169.74" style="fill: #2d6282; stroke: #ffffff; stroke-width: 0.9"/>
    </g>
   </g>
  </g>
  <g id="axes_2">
   <g id="patch_6">
    <path d="M 318.336615 273.24 
L 514.152 273.24 
L 514.152 66.24 
L 318.336615 66.24 
z
" style="fill: #ffffff"/>
   </g>
   <g id="matplotlib.axis_3">
    <g id="xtick_4">
     <g id="line2d_15">
      <g>
       <use xlink:href="#md8f8fb0d6d" x="346.310242" y="273.24" style="fill: #626a73; stroke: #626a73; stroke-width: 0.7"/>
      </g>
     </g>
     <g id="text_13">
      <text style="font-size: 9.5px; font-family: 'Helvetica Neue', 'Helvetica', 'Arial', 'DejaVu Sans', sans-serif; text-anchor: middle; fill: #626a73" x="346.310242" y="286.957773" transform="rotate(-0 346.310242 286.957773)">2003</text>
     </g>
    </g>
    <g id="xtick_5">
     <g id="line2d_16">
      <g>
       <use xlink:href="#md8f8fb0d6d" x="416.244308" y="273.24" style="fill: #626a73; stroke: #626a73; stroke-width: 0.7"/>
      </g>
     </g>
     <g id="text_14">
      <text style="font-size: 9.5px; font-family: 'Helvetica Neue', 'Helvetica', 'Arial', 'DejaVu Sans', sans-serif; text-anchor: middle; fill: #626a73" x="416.244308" y="286.957773" transform="rotate(-0 416.244308 286.957773)">2008</text>
     </g>
    </g>
    <g id="xtick_6">
     <g id="line2d_17">
      <g>
       <use xlink:href="#md8f8fb0d6d" x="486.178374" y="273.24" style="fill: #626a73; stroke: #626a73; stroke-width: 0.7"/>
      </g>
     </g>
     <g id="text_15">
      <text style="font-size: 9.5px; font-family: 'Helvetica Neue', 'Helvetica', 'Arial', 'DejaVu Sans', sans-serif; text-anchor: middle; fill: #626a73" x="486.178374" y="286.957773" transform="rotate(-0 486.178374 286.957773)">2013</text>
     </g>
    </g>
   </g>
   <g id="matplotlib.axis_4">
    <g id="ytick_6">
     <g id="line2d_18">
      <path d="M 318.336615 273.24 
L 514.152 273.24 
" clip-path="url(#p88639d6c2e)" style="fill: none; stroke: #d9dee3; stroke-opacity: 0.7; stroke-width: 0.7; stroke-linecap: square"/>
     </g>
     <g id="line2d_19">
      <g>
       <use xlink:href="#mc5a57186b2" x="318.336615" y="273.24" style="fill: #626a73; stroke: #626a73; stroke-width: 0.7"/>
      </g>
     </g>
     <g id="text_16">
      <text style="font-size: 9.5px; font-family: 'Helvetica Neue', 'Helvetica', 'Arial', 'DejaVu Sans', sans-serif; text-anchor: end; fill: #626a73" x="311.836615" y="276.848887" transform="rotate(-0 311.836615 276.848887)">0%</text>
     </g>
    </g>
    <g id="ytick_7">
     <g id="line2d_20">
      <path d="M 318.336615 231.84 
L 514.152 231.84 
" clip-path="url(#p88639d6c2e)" style="fill: none; stroke: #d9dee3; stroke-opacity: 0.7; stroke-width: 0.7; stroke-linecap: square"/>
     </g>
     <g id="line2d_21">
      <g>
       <use xlink:href="#mc5a57186b2" x="318.336615" y="231.84" style="fill: #626a73; stroke: #626a73; stroke-width: 0.7"/>
      </g>
     </g>
     <g id="text_17">
      <text style="font-size: 9.5px; font-family: 'Helvetica Neue', 'Helvetica', 'Arial', 'DejaVu Sans', sans-serif; text-anchor: end; fill: #626a73" x="311.836615" y="235.448887" transform="rotate(-0 311.836615 235.448887)">10%</text>
     </g>
    </g>
    <g id="ytick_8">
     <g id="line2d_22">
      <path d="M 318.336615 190.44 
L 514.152 190.44 
" clip-path="url(#p88639d6c2e)" style="fill: none; stroke: #d9dee3; stroke-opacity: 0.7; stroke-width: 0.7; stroke-linecap: square"/>
     </g>
     <g id="line2d_23">
      <g>
       <use xlink:href="#mc5a57186b2" x="318.336615" y="190.44" style="fill: #626a73; stroke: #626a73; stroke-width: 0.7"/>
      </g>
     </g>
     <g id="text_18">
      <text style="font-size: 9.5px; font-family: 'Helvetica Neue', 'Helvetica', 'Arial', 'DejaVu Sans', sans-serif; text-anchor: end; fill: #626a73" x="311.836615" y="194.048887" transform="rotate(-0 311.836615 194.048887)">20%</text>
     </g>
    </g>
    <g id="ytick_9">
     <g id="line2d_24">
      <path d="M 318.336615 149.04 
L 514.152 149.04 
" clip-path="url(#p88639d6c2e)" style="fill: none; stroke: #d9dee3; stroke-opacity: 0.7; stroke-width: 0.7; stroke-linecap: square"/>
     </g>
     <g id="line2d_25">
      <g>
       <use xlink:href="#mc5a57186b2" x="318.336615" y="149.04" style="fill: #626a73; stroke: #626a73; stroke-width: 0.7"/>
      </g>
     </g>
     <g id="text_19">
      <text style="font-size: 9.5px; font-family: 'Helvetica Neue', 'Helvetica', 'Arial', 'DejaVu Sans', sans-serif; text-anchor: end; fill: #626a73" x="311.836615" y="152.648887" transform="rotate(-0 311.836615 152.648887)">30%</text>
     </g>
    </g>
    <g id="ytick_10">
     <g id="line2d_26">
      <path d="M 318.336615 107.64 
L 514.152 107.64 
" clip-path="url(#p88639d6c2e)" style="fill: none; stroke: #d9dee3; stroke-opacity: 0.7; stroke-width: 0.7; stroke-linecap: square"/>
     </g>
     <g id="line2d_27">
      <g>
       <use xlink:href="#mc5a57186b2" x="318.336615" y="107.64" style="fill: #626a73; stroke: #626a73; stroke-width: 0.7"/>
      </g>
     </g>
     <g id="text_20">
      <text style="font-size: 9.5px; font-family: 'Helvetica Neue', 'Helvetica', 'Arial', 'DejaVu Sans', sans-serif; text-anchor: end; fill: #626a73" x="311.836615" y="111.248887" transform="rotate(-0 311.836615 111.248887)">40%</text>
     </g>
    </g>
    <g id="ytick_11">
     <g id="line2d_28">
      <path d="M 318.336615 66.24 
L 514.152 66.24 
" clip-path="url(#p88639d6c2e)" style="fill: none; stroke: #d9dee3; stroke-opacity: 0.7; stroke-width: 0.7; stroke-linecap: square"/>
     </g>
     <g id="line2d_29">
      <g>
       <use xlink:href="#mc5a57186b2" x="318.336615" y="66.24" style="fill: #626a73; stroke: #626a73; stroke-width: 0.7"/>
      </g>
     </g>
     <g id="text_21">
      <text style="font-size: 9.5px; font-family: 'Helvetica Neue', 'Helvetica', 'Arial', 'DejaVu Sans', sans-serif; text-anchor: end; fill: #626a73" x="311.836615" y="69.848887" transform="rotate(-0 311.836615 69.848887)">50%</text>
     </g>
    </g>
    <g id="text_22">
     <text style="font-size: 10.5px; font-family: 'Helvetica Neue', 'Helvetica', 'Arial', 'DejaVu Sans', sans-serif; text-anchor: middle; fill: #202124" x="284.19892" y="169.74" transform="rotate(-90 284.19892 169.74)">Firms disclosing non-GAAP earnings</text>
    </g>
   </g>
   <g id="FillBetweenPolyCollection_2">
    <defs>
     <path id="mdadfcd511d" d="M 346.310242 -140.76 
L 346.310242 -57.96 
L 486.178374 -57.96 
L 486.178374 -223.56 
L 486.178374 -223.56 
L 346.310242 -140.76 
z
" style="stroke: #f1e2e0; stroke-opacity: 0.8"/>
    </defs>
    <g clip-path="url(#p88639d6c2e)">
     <use xlink:href="#mdadfcd511d" x="0" y="331.2" style="fill: #f1e2e0; fill-opacity: 0.8; stroke: #f1e2e0; stroke-opacity: 0.8"/>
    </g>
   </g>
   <g id="patch_7">
    <path d="M 318.336615 273.24 
L 318.336615 66.24 
" style="fill: none; stroke: #d9dee3; stroke-width: 0.8; stroke-linejoin: miter; stroke-linecap: square"/>
   </g>
   <g id="patch_8">
    <path d="M 318.336615 273.24 
L 514.152 273.24 
" style="fill: none; stroke: #d9dee3; stroke-width: 0.8; stroke-linejoin: miter; stroke-linecap: square"/>
   </g>
   <g id="line2d_30">
    <path d="M 346.310242 190.44 
L 486.178374 107.64 
" clip-path="url(#p88639d6c2e)" style="fill: none; stroke: #b24a45; stroke-width: 2.4; stroke-linecap: square"/>
    <defs>
     <path id="m3906967a61" d="M 0 3 
C 0.795609 3 1.55874 2.683901 2.12132 2.12132 
C 2.683901 1.55874 3 0.795609 3 0 
C 3 -0.795609 2.683901 -1.55874 2.12132 -2.12132 
C 1.55874 -2.683901 0.795609 -3 0 -3 
C -0.795609 -3 -1.55874 -2.683901 -2.12132 -2.12132 
C -2.683901 -1.55874 -3 -0.795609 -3 0 
C -3 0.795609 -2.683901 1.55874 -2.12132 2.12132 
C -1.55874 2.683901 -0.795609 3 0 3 
z
" style="stroke: #b24a45; stroke-width: 1.4"/>
    </defs>
    <g clip-path="url(#p88639d6c2e)">
     <use xlink:href="#m3906967a61" x="346.310242" y="190.44" style="fill: #ffffff; stroke: #b24a45; stroke-width: 1.4"/>
     <use xlink:href="#m3906967a61" x="486.178374" y="107.64" style="fill: #ffffff; stroke: #b24a45; stroke-width: 1.4"/>
    </g>
   </g>
   <g id="text_23">
    <text style="font-size: 9px; font-family: 'Helvetica Neue', 'Helvetica', 'Arial', 'DejaVu Sans', sans-serif; text-anchor: start; fill: #b24a45" x="350.506286" y="225.897891" transform="rotate(-0 350.506286 225.897891)">20%</text>
   </g>
   <g id="text_24">
    <text style="font-size: 9px; font-family: 'Helvetica Neue', 'Helvetica', 'Arial', 'DejaVu Sans', sans-serif; text-anchor: end; fill: #b24a45" x="481.98233" y="89.277891" transform="rotate(-0 481.98233 89.277891)">40%</text>
   </g>
   <g id="text_25">
    <text style="font-weight: 700; font-size: 8.6px; font-family: 'Helvetica Neue', 'Helvetica', 'Arial', 'DejaVu Sans', sans-serif; fill: #202124" transform="translate(328.127385 94.335496)">doubled in</text>
    <text style="font-weight: 700; font-size: 8.6px; font-family: 'Helvetica Neue', 'Helvetica', 'Arial', 'DejaVu Sans', sans-serif; fill: #202124" transform="translate(328.127385 104.657848)">a decade</text>
   </g>
   <g id="text_26">
    <text style="font-weight: 700; font-size: 10.5px; font-family: 'Helvetica Neue', 'Helvetica', 'Arial', 'DejaVu Sans', sans-serif; text-anchor: start; fill: #202124" x="318.336615" y="58.24" transform="rotate(-0 318.336615 58.24)">(B) The work-around</text>
   </g>
  </g>
  <g id="text_27">
   <text style="font-weight: 700; font-size: 13px; font-family: 'Helvetica Neue', 'Helvetica', 'Arial', 'DejaVu Sans', sans-serif; text-anchor: start; fill: #202124" x="33.0336" y="24.780953" transform="rotate(-0 33.0336 24.780953)">THE END OF ACCOUNTING</text>
  </g>
  <g id="text_28">
   <text style="font-size: 10px; font-family: 'Helvetica Neue', 'Helvetica', 'Arial', 'DejaVu Sans', sans-serif; text-anchor: start; fill: #626a73" x="33.0336" y="39.062437" transform="rotate(-0 33.0336 39.062437)">One erosion, two readings: relevance falls as work-arounds rise.</text>
  </g>
  <g id="text_29">
   <text style="font-size: 7.6px; font-family: 'DejaVu Sans Mono', 'Bitstream Vera Sans Mono', 'Computer Modern Typewriter', 'Andale Mono', 'Nimbus Mono L', 'Courier New', 'Courier', 'Fixed', 'Terminal', monospace; text-anchor: start; fill: #626a73" x="33.0336" y="318.6144" transform="rotate(-0 33.0336 318.6144)">source: Lev &amp; Gu, The End of Accounting (2016)  |  R^2 endpoints cited; path schematic</text>
  </g>
 </g>
 <defs>
  <clipPath id="pd8a60b87cf">
   <rect x="55.944" y="66.24" width="195.815385" height="207"/>
  </clipPath>
  <clipPath id="p88639d6c2e">
   <rect x="318.336615" y="66.24" width="195.815385" height="207"/>
  </clipPath>
 </defs>
</svg>
