<?xml version="1.0" encoding="utf-8" standalone="no"?>
<!DOCTYPE svg PUBLIC "-//W3C//DTD SVG 1.1//EN"
  "http://www.w3.org/Graphics/SVG/1.1/DTD/svg11.dtd">
<svg xmlns:xlink="http://www.w3.org/1999/xlink" width="765.581406pt" height="342.884pt" viewBox="0 0 765.581406 342.884" xmlns="http://www.w3.org/2000/svg" version="1.1">
 <metadata>
  <rdf:RDF xmlns:dc="http://purl.org/dc/elements/1.1/" xmlns:cc="http://creativecommons.org/ns#" xmlns:rdf="http://www.w3.org/1999/02/22-rdf-syntax-ns#">
   <cc:Work>
    <dc:type rdf:resource="http://purl.org/dc/dcmitype/StillImage"/>
    <dc:format>image/svg+xml</dc:format>
    <dc:creator>
     <cc:Agent>
      <dc:title>scripts/generate-blind-ledger-figures.py</dc:title>
     </cc:Agent>
    </dc:creator>
   </cc:Work>
  </rdf:RDF>
 </metadata>
 <defs>
  <style type="text/css">*{stroke-linejoin: round; stroke-linecap: butt}</style>
 </defs>
 <g id="figure_1">
  <g id="patch_1">
   <path d="M 0 342.884 
L 765.581406 342.884 
L 765.581406 -0 
L 0 -0 
z
" style="fill: #ffffff"/>
  </g>
  <g id="axes_1">
   <g id="patch_2">
    <path d="M 49.541406 320.184 
L 363.187424 320.184 
L 363.187424 71.352 
L 49.541406 71.352 
z
" style="fill: #ffffff"/>
   </g>
   <g id="matplotlib.axis_1">
    <g id="xtick_1">
     <g id="line2d_1">
      <defs>
       <path id="md8f8fb0d6d" d="M 0 0 
L 0 3 
" style="stroke: #626a73; stroke-width: 0.7"/>
      </defs>
      <g>
       <use xlink:href="#md8f8fb0d6d" x="73.302468" y="320.184" style="fill: #626a73; stroke: #626a73; stroke-width: 0.7"/>
      </g>
     </g>
     <g id="text_1">
      <text style="font-size: 9px; font-family: 'Helvetica Neue', 'Helvetica', 'Arial', 'DejaVu Sans', sans-serif; text-anchor: middle; fill: #626a73" x="73.302468" y="333.521891" transform="rotate(-0 73.302468 333.521891)">1955</text>
     </g>
    </g>
    <g id="xtick_2">
     <g id="line2d_2">
      <g>
       <use xlink:href="#md8f8fb0d6d" x="168.346716" y="320.184" style="fill: #626a73; stroke: #626a73; stroke-width: 0.7"/>
      </g>
     </g>
     <g id="text_2">
      <text style="font-size: 9px; font-family: 'Helvetica Neue', 'Helvetica', 'Arial', 'DejaVu Sans', sans-serif; text-anchor: middle; fill: #626a73" x="168.346716" y="333.521891" transform="rotate(-0 168.346716 333.521891)">1975</text>
     </g>
    </g>
    <g id="xtick_3">
     <g id="line2d_3">
      <g>
       <use xlink:href="#md8f8fb0d6d" x="263.390964" y="320.184" style="fill: #626a73; stroke: #626a73; stroke-width: 0.7"/>
      </g>
     </g>
     <g id="text_3">
      <text style="font-size: 9px; font-family: 'Helvetica Neue', 'Helvetica', 'Arial', 'DejaVu Sans', sans-serif; text-anchor: middle; fill: #626a73" x="263.390964" y="333.521891" transform="rotate(-0 263.390964 333.521891)">1995</text>
     </g>
    </g>
    <g id="xtick_4">
     <g id="line2d_4">
      <g>
       <use xlink:href="#md8f8fb0d6d" x="358.435212" y="320.184" style="fill: #626a73; stroke: #626a73; stroke-width: 0.7"/>
      </g>
     </g>
     <g id="text_4">
      <text style="font-size: 9px; font-family: 'Helvetica Neue', 'Helvetica', 'Arial', 'DejaVu Sans', sans-serif; text-anchor: middle; fill: #626a73" x="358.435212" y="333.521891" transform="rotate(-0 358.435212 333.521891)">2015</text>
     </g>
    </g>
   </g>
   <g id="matplotlib.axis_2">
    <g id="ytick_1">
     <g id="line2d_5">
      <path d="M 49.541406 320.184 
L 363.187424 320.184 
" clip-path="url(#pf69e5cd3db)" style="fill: none; stroke: #d9dee3; stroke-opacity: 0.7; stroke-width: 0.7; stroke-linecap: square"/>
     </g>
     <g id="line2d_6">
      <defs>
       <path id="mc5a57186b2" d="M 0 0 
L -3 0 
" style="stroke: #626a73; stroke-width: 0.7"/>
      </defs>
      <g>
       <use xlink:href="#mc5a57186b2" x="49.541406" y="320.184" style="fill: #626a73; stroke: #626a73; stroke-width: 0.7"/>
      </g>
     </g>
     <g id="text_5">
      <text style="font-size: 9px; font-family: 'Helvetica Neue', 'Helvetica', 'Arial', 'DejaVu Sans', sans-serif; text-anchor: end; fill: #626a73" x="43.041406" y="323.602945" transform="rotate(-0 43.041406 323.602945)">0.00</text>
     </g>
    </g>
    <g id="ytick_2">
     <g id="line2d_7">
      <path d="M 49.541406 257.976 
L 363.187424 257.976 
" clip-path="url(#pf69e5cd3db)" style="fill: none; stroke: #d9dee3; stroke-opacity: 0.7; stroke-width: 0.7; stroke-linecap: square"/>
     </g>
     <g id="line2d_8">
      <g>
       <use xlink:href="#mc5a57186b2" x="49.541406" y="257.976" style="fill: #626a73; stroke: #626a73; stroke-width: 0.7"/>
      </g>
     </g>
     <g id="text_6">
      <text style="font-size: 9px; font-family: 'Helvetica Neue', 'Helvetica', 'Arial', 'DejaVu Sans', sans-serif; text-anchor: end; fill: #626a73" x="43.041406" y="261.394945" transform="rotate(-0 43.041406 261.394945)">0.25</text>
     </g>
    </g>
    <g id="ytick_3">
     <g id="line2d_9">
      <path d="M 49.541406 195.768 
L 363.187424 195.768 
" clip-path="url(#pf69e5cd3db)" style="fill: none; stroke: #d9dee3; stroke-opacity: 0.7; stroke-width: 0.7; stroke-linecap: square"/>
     </g>
     <g id="line2d_10">
      <g>
       <use xlink:href="#mc5a57186b2" x="49.541406" y="195.768" style="fill: #626a73; stroke: #626a73; stroke-width: 0.7"/>
      </g>
     </g>
     <g id="text_7">
      <text style="font-size: 9px; font-family: 'Helvetica Neue', 'Helvetica', 'Arial', 'DejaVu Sans', sans-serif; text-anchor: end; fill: #626a73" x="43.041406" y="199.186945" transform="rotate(-0 43.041406 199.186945)">0.50</text>
     </g>
    </g>
    <g id="ytick_4">
     <g id="line2d_11">
      <path d="M 49.541406 133.56 
L 363.187424 133.56 
" clip-path="url(#pf69e5cd3db)" style="fill: none; stroke: #d9dee3; stroke-opacity: 0.7; stroke-width: 0.7; stroke-linecap: square"/>
     </g>
     <g id="line2d_12">
      <g>
       <use xlink:href="#mc5a57186b2" x="49.541406" y="133.56" style="fill: #626a73; stroke: #626a73; stroke-width: 0.7"/>
      </g>
     </g>
     <g id="text_8">
      <text style="font-size: 9px; font-family: 'Helvetica Neue', 'Helvetica', 'Arial', 'DejaVu Sans', sans-serif; text-anchor: end; fill: #626a73" x="43.041406" y="136.978945" transform="rotate(-0 43.041406 136.978945)">0.75</text>
     </g>
    </g>
    <g id="ytick_5">
     <g id="line2d_13">
      <path d="M 49.541406 71.352 
L 363.187424 71.352 
" clip-path="url(#pf69e5cd3db)" style="fill: none; stroke: #d9dee3; stroke-opacity: 0.7; stroke-width: 0.7; stroke-linecap: square"/>
     </g>
     <g id="line2d_14">
      <g>
       <use xlink:href="#mc5a57186b2" x="49.541406" y="71.352" style="fill: #626a73; stroke: #626a73; stroke-width: 0.7"/>
      </g>
     </g>
     <g id="text_9">
      <text style="font-size: 9px; font-family: 'Helvetica Neue', 'Helvetica', 'Arial', 'DejaVu Sans', sans-serif; text-anchor: end; fill: #626a73" x="43.041406" y="74.770945" transform="rotate(-0 43.041406 74.770945)">1.00</text>
     </g>
    </g>
    <g id="text_10">
     <!-- $R^2$ : accounting $\rightarrow$ market cap -->
     <g style="fill: #202124" transform="translate(16.6 272.118) rotate(-90)">
      <text>
       <tspan x="0" y="-0.674688" style="font-style: oblique; font-size: 10px; font-family: 'DejaVu Sans'; fill: #202124">R</tspan>
       <tspan x="7.650794" y="-4.804688" style="font-size: 7px; font-family: 'DejaVu Sans'; fill: #202124">2</tspan>
       <tspan x="12.377845" y="-0.674688" style="font-size: 10px; font-family: 'DejaVu Sans'; fill: #202124"> </tspan>
       <tspan x="15.556556" y="-0.674688" style="font-size: 10px; font-family: 'DejaVu Sans'; fill: #202124">:</tspan>
       <tspan x="18.925697" y="-0.674688" style="font-size: 10px; font-family: 'DejaVu Sans'; fill: #202124"> </tspan>
       <tspan x="22.104408" y="-0.674688" style="font-size: 10px; font-family: 'DejaVu Sans'; fill: #202124">a</tspan>
       <tspan x="28.232337" y="-0.674688" style="font-size: 10px; font-family: 'DejaVu Sans'; fill: #202124">c</tspan>
       <tspan x="33.730384" y="-0.674688" style="font-size: 10px; font-family: 'DejaVu Sans'; fill: #202124">c</tspan>
       <tspan x="39.228431" y="-0.674688" style="font-size: 10px; font-family: 'DejaVu Sans'; fill: #202124">o</tspan>
       <tspan x="45.346595" y="-0.674688" style="font-size: 10px; font-family: 'DejaVu Sans'; fill: #202124">u</tspan>
       <tspan x="51.684486" y="-0.674688" style="font-size: 10px; font-family: 'DejaVu Sans'; fill: #202124">n</tspan>
       <tspan x="58.022376" y="-0.674688" style="font-size: 10px; font-family: 'DejaVu Sans'; fill: #202124">t</tspan>
       <tspan x="61.943275" y="-0.674688" style="font-size: 10px; font-family: 'DejaVu Sans'; fill: #202124">i</tspan>
       <tspan x="64.721595" y="-0.674688" style="font-size: 10px; font-family: 'DejaVu Sans'; fill: #202124">n</tspan>
       <tspan x="71.059486" y="-0.674688" style="font-size: 10px; font-family: 'DejaVu Sans'; fill: #202124">g</tspan>
       <tspan x="77.407142" y="-0.674688" style="font-size: 10px; font-family: 'DejaVu Sans'; fill: #202124"> </tspan>
       <tspan x="82.534095" y="-0.674688" style="font-size: 10px; font-family: 'DejaVu Sans'; fill: #202124">→</tspan>
       <tspan x="92.861243" y="-0.674688" style="font-size: 10px; font-family: 'DejaVu Sans'; fill: #202124"> </tspan>
       <tspan x="96.039954" y="-0.674688" style="font-size: 10px; font-family: 'DejaVu Sans'; fill: #202124">m</tspan>
       <tspan x="105.781165" y="-0.674688" style="font-size: 10px; font-family: 'DejaVu Sans'; fill: #202124">a</tspan>
       <tspan x="111.909095" y="-0.674688" style="font-size: 10px; font-family: 'DejaVu Sans'; fill: #202124">r</tspan>
       <tspan x="116.020423" y="-0.674688" style="font-size: 10px; font-family: 'DejaVu Sans'; fill: #202124">k</tspan>
       <tspan x="121.811439" y="-0.674688" style="font-size: 10px; font-family: 'DejaVu Sans'; fill: #202124">e</tspan>
       <tspan x="127.963783" y="-0.674688" style="font-size: 10px; font-family: 'DejaVu Sans'; fill: #202124">t</tspan>
       <tspan x="131.884681" y="-0.674688" style="font-size: 10px; font-family: 'DejaVu Sans'; fill: #202124"> </tspan>
       <tspan x="135.063392" y="-0.674688" style="font-size: 10px; font-family: 'DejaVu Sans'; fill: #202124">c</tspan>
       <tspan x="140.561439" y="-0.674688" style="font-size: 10px; font-family: 'DejaVu Sans'; fill: #202124">a</tspan>
       <tspan x="146.689368" y="-0.674688" style="font-size: 10px; font-family: 'DejaVu Sans'; fill: #202124">p</tspan>
      </text>
     </g>
    </g>
   </g>
   <g id="FillBetweenPolyCollection_1">
    <defs>
     <path id="mf8af0b7982" d="M 63.798043 -236.69552 
L 63.798043 -22.7 
L 65.230871 -22.7 
L 66.663699 -22.7 
L 68.096527 -22.7 
L 69.529355 -22.7 
L 70.962183 -22.7 
L 72.395011 -22.7 
L 73.827838 -22.7 
L 75.260666 -22.7 
L 76.693494 -22.7 
L 78.126322 -22.7 
L 79.55915 -22.7 
L 80.991978 -22.7 
L 82.424806 -22.7 
L 83.857633 -22.7 
L 85.290461 -22.7 
L 86.723289 -22.7 
L 88.156117 -22.7 
L 89.588945 -22.7 
L 91.021773 -22.7 
L 92.454601 -22.7 
L 93.887428 -22.7 
L 95.320256 -22.7 
L 96.753084 -22.7 
L 98.185912 -22.7 
L 99.61874 -22.7 
L 101.051568 -22.7 
L 102.484396 -22.7 
L 103.917223 -22.7 
L 105.350051 -22.7 
L 106.782879 -22.7 
L 108.215707 -22.7 
L 109.648535 -22.7 
L 111.081363 -22.7 
L 112.514191 -22.7 
L 113.947018 -22.7 
L 115.379846 -22.7 
L 116.812674 -22.7 
L 118.245502 -22.7 
L 119.67833 -22.7 
L 121.111158 -22.7 
L 122.543986 -22.7 
L 123.976813 -22.7 
L 125.409641 -22.7 
L 126.842469 -22.7 
L 128.275297 -22.7 
L 129.708125 -22.7 
L 131.140953 -22.7 
L 132.573781 -22.7 
L 134.006608 -22.7 
L 135.439436 -22.7 
L 136.872264 -22.7 
L 138.305092 -22.7 
L 139.73792 -22.7 
L 141.170748 -22.7 
L 142.603576 -22.7 
L 144.036403 -22.7 
L 145.469231 -22.7 
L 146.902059 -22.7 
L 148.334887 -22.7 
L 149.767715 -22.7 
L 151.200543 -22.7 
L 152.63337 -22.7 
L 154.066198 -22.7 
L 155.499026 -22.7 
L 156.931854 -22.7 
L 158.364682 -22.7 
L 159.79751 -22.7 
L 161.230338 -22.7 
L 162.663165 -22.7 
L 164.095993 -22.7 
L 165.528821 -22.7 
L 166.961649 -22.7 
L 168.394477 -22.7 
L 169.827305 -22.7 
L 171.260133 -22.7 
L 172.69296 -22.7 
L 174.125788 -22.7 
L 175.558616 -22.7 
L 176.991444 -22.7 
L 178.424272 -22.7 
L 179.8571 -22.7 
L 181.289928 -22.7 
L 182.722755 -22.7 
L 184.155583 -22.7 
L 185.588411 -22.7 
L 187.021239 -22.7 
L 188.454067 -22.7 
L 189.886895 -22.7 
L 191.319723 -22.7 
L 192.75255 -22.7 
L 194.185378 -22.7 
L 195.618206 -22.7 
L 197.051034 -22.7 
L 198.483862 -22.7 
L 199.91669 -22.7 
L 201.349518 -22.7 
L 202.782345 -22.7 
L 204.215173 -22.7 
L 205.648001 -22.7 
L 207.080829 -22.7 
L 208.513657 -22.7 
L 209.946485 -22.7 
L 211.379313 -22.7 
L 212.81214 -22.7 
L 214.244968 -22.7 
L 215.677796 -22.7 
L 217.110624 -22.7 
L 218.543452 -22.7 
L 219.97628 -22.7 
L 221.409108 -22.7 
L 222.841935 -22.7 
L 224.274763 -22.7 
L 225.707591 -22.7 
L 227.140419 -22.7 
L 228.573247 -22.7 
L 230.006075 -22.7 
L 231.438903 -22.7 
L 232.87173 -22.7 
L 234.304558 -22.7 
L 235.737386 -22.7 
L 237.170214 -22.7 
L 238.603042 -22.7 
L 240.03587 -22.7 
L 241.468698 -22.7 
L 242.901525 -22.7 
L 244.334353 -22.7 
L 245.767181 -22.7 
L 247.200009 -22.7 
L 248.632837 -22.7 
L 250.065665 -22.7 
L 251.498493 -22.7 
L 252.93132 -22.7 
L 254.364148 -22.7 
L 255.796976 -22.7 
L 257.229804 -22.7 
L 258.662632 -22.7 
L 260.09546 -22.7 
L 261.528288 -22.7 
L 262.961115 -22.7 
L 264.393943 -22.7 
L 265.826771 -22.7 
L 267.259599 -22.7 
L 268.692427 -22.7 
L 270.125255 -22.7 
L 271.558083 -22.7 
L 272.99091 -22.7 
L 274.423738 -22.7 
L 275.856566 -22.7 
L 277.289394 -22.7 
L 278.722222 -22.7 
L 280.15505 -22.7 
L 281.587878 -22.7 
L 283.020705 -22.7 
L 284.453533 -22.7 
L 285.886361 -22.7 
L 287.319189 -22.7 
L 288.752017 -22.7 
L 290.184845 -22.7 
L 291.617673 -22.7 
L 293.0505 -22.7 
L 294.483328 -22.7 
L 295.916156 -22.7 
L 297.348984 -22.7 
L 298.781812 -22.7 
L 300.21464 -22.7 
L 301.647468 -22.7 
L 303.080295 -22.7 
L 304.513123 -22.7 
L 305.945951 -22.7 
L 307.378779 -22.7 
L 308.811607 -22.7 
L 310.244435 -22.7 
L 311.677263 -22.7 
L 313.11009 -22.7 
L 314.542918 -22.7 
L 315.975746 -22.7 
L 317.408574 -22.7 
L 318.841402 -22.7 
L 320.27423 -22.7 
L 321.707058 -22.7 
L 323.139885 -22.7 
L 324.572713 -22.7 
L 326.005541 -22.7 
L 327.438369 -22.7 
L 328.871197 -22.7 
L 330.304025 -22.7 
L 331.736853 -22.7 
L 333.16968 -22.7 
L 334.602508 -22.7 
L 336.035336 -22.7 
L 337.468164 -22.7 
L 338.900992 -22.7 
L 340.33382 -22.7 
L 341.766648 -22.7 
L 343.199475 -22.7 
L 344.632303 -22.7 
L 346.065131 -22.7 
L 347.497959 -22.7 
L 348.930787 -22.7 
L 348.930787 -147.116 
L 348.930787 -147.116 
L 347.497959 -147.566148 
L 346.065131 -148.016297 
L 344.632303 -148.466445 
L 343.199475 -148.916593 
L 341.766648 -149.366742 
L 340.33382 -149.81689 
L 338.900992 -150.267038 
L 337.468164 -150.717187 
L 336.035336 -151.167335 
L 334.602508 -151.617483 
L 333.16968 -152.067632 
L 331.736853 -152.51778 
L 330.304025 -152.967928 
L 328.871197 -153.418077 
L 327.438369 -153.868225 
L 326.005541 -154.318373 
L 324.572713 -154.768522 
L 323.139885 -155.21867 
L 321.707058 -155.668818 
L 320.27423 -156.118967 
L 318.841402 -156.569115 
L 317.408574 -157.019264 
L 315.975746 -157.469412 
L 314.542918 -157.91956 
L 313.11009 -158.369709 
L 311.677263 -158.819857 
L 310.244435 -159.270005 
L 308.811607 -159.720154 
L 307.378779 -160.170302 
L 305.945951 -160.62045 
L 304.513123 -161.070599 
L 303.080295 -161.520747 
L 301.647468 -161.970895 
L 300.21464 -162.421044 
L 298.781812 -162.871192 
L 297.348984 -163.32134 
L 295.916156 -163.771489 
L 294.483328 -164.221637 
L 293.0505 -164.671785 
L 291.617673 -165.121934 
L 290.184845 -165.572082 
L 288.752017 -166.02223 
L 287.319189 -166.472379 
L 285.886361 -166.922527 
L 284.453533 -167.372675 
L 283.020705 -167.822824 
L 281.587878 -168.272972 
L 280.15505 -168.72312 
L 278.722222 -169.173269 
L 277.289394 -169.623417 
L 275.856566 -170.073565 
L 274.423738 -170.523714 
L 272.99091 -170.973862 
L 271.558083 -171.42401 
L 270.125255 -171.874159 
L 268.692427 -172.324307 
L 267.259599 -172.774455 
L 265.826771 -173.224604 
L 264.393943 -173.674752 
L 262.961115 -174.124901 
L 261.528288 -174.575049 
L 260.09546 -175.025197 
L 258.662632 -175.475346 
L 257.229804 -175.925494 
L 255.796976 -176.375642 
L 254.364148 -176.825791 
L 252.93132 -177.275939 
L 251.498493 -177.726087 
L 250.065665 -178.176236 
L 248.632837 -178.626384 
L 247.200009 -179.076532 
L 245.767181 -179.526681 
L 244.334353 -179.976829 
L 242.901525 -180.426977 
L 241.468698 -180.877126 
L 240.03587 -181.327274 
L 238.603042 -181.777422 
L 237.170214 -182.227571 
L 235.737386 -182.677719 
L 234.304558 -183.127867 
L 232.87173 -183.578016 
L 231.438903 -184.028164 
L 230.006075 -184.478312 
L 228.573247 -184.928461 
L 227.140419 -185.378609 
L 225.707591 -185.828757 
L 224.274763 -186.278906 
L 222.841935 -186.729054 
L 221.409108 -187.179202 
L 219.97628 -187.629351 
L 218.543452 -188.079499 
L 217.110624 -188.529647 
L 215.677796 -188.979796 
L 214.244968 -189.429944 
L 212.81214 -189.880092 
L 211.379313 -190.330241 
L 209.946485 -190.780389 
L 208.513657 -191.230537 
L 207.080829 -191.680686 
L 205.648001 -192.130834 
L 204.215173 -192.580983 
L 202.782345 -193.031131 
L 201.349518 -193.481279 
L 199.91669 -193.931428 
L 198.483862 -194.381576 
L 197.051034 -194.831724 
L 195.618206 -195.281873 
L 194.185378 -195.732021 
L 192.75255 -196.182169 
L 191.319723 -196.632318 
L 189.886895 -197.082466 
L 188.454067 -197.532614 
L 187.021239 -197.982763 
L 185.588411 -198.432911 
L 184.155583 -198.883059 
L 182.722755 -199.333208 
L 181.289928 -199.783356 
L 179.8571 -200.233504 
L 178.424272 -200.683653 
L 176.991444 -201.133801 
L 175.558616 -201.583949 
L 174.125788 -202.034098 
L 172.69296 -202.484246 
L 171.260133 -202.934394 
L 169.827305 -203.384543 
L 168.394477 -203.834691 
L 166.961649 -204.284839 
L 165.528821 -204.734988 
L 164.095993 -205.185136 
L 162.663165 -205.635284 
L 161.230338 -206.085433 
L 159.79751 -206.535581 
L 158.364682 -206.985729 
L 156.931854 -207.435878 
L 155.499026 -207.886026 
L 154.066198 -208.336174 
L 152.63337 -208.786323 
L 151.200543 -209.236471 
L 149.767715 -209.686619 
L 148.334887 -210.136768 
L 146.902059 -210.586916 
L 145.469231 -211.037065 
L 144.036403 -211.487213 
L 142.603576 -211.937361 
L 141.170748 -212.38751 
L 139.73792 -212.837658 
L 138.305092 -213.287806 
L 136.872264 -213.737955 
L 135.439436 -214.188103 
L 134.006608 -214.638251 
L 132.573781 -215.0884 
L 131.140953 -215.538548 
L 129.708125 -215.988696 
L 128.275297 -216.438845 
L 126.842469 -216.888993 
L 125.409641 -217.339141 
L 123.976813 -217.78929 
L 122.543986 -218.239438 
L 121.111158 -218.689586 
L 119.67833 -219.139735 
L 118.245502 -219.589883 
L 116.812674 -220.040031 
L 115.379846 -220.49018 
L 113.947018 -220.940328 
L 112.514191 -221.390476 
L 111.081363 -221.840625 
L 109.648535 -222.290773 
L 108.215707 -222.740921 
L 106.782879 -223.19107 
L 105.350051 -223.641218 
L 103.917223 -224.091366 
L 102.484396 -224.541515 
L 101.051568 -224.991663 
L 99.61874 -225.441811 
L 98.185912 -225.89196 
L 96.753084 -226.342108 
L 95.320256 -226.792256 
L 93.887428 -227.242405 
L 92.454601 -227.692553 
L 91.021773 -228.142702 
L 89.588945 -228.59285 
L 88.156117 -229.042998 
L 86.723289 -229.493147 
L 85.290461 -229.943295 
L 83.857633 -230.393443 
L 82.424806 -230.843592 
L 80.991978 -231.29374 
L 79.55915 -231.743888 
L 78.126322 -232.194037 
L 76.693494 -232.644185 
L 75.260666 -233.094333 
L 73.827838 -233.544482 
L 72.395011 -233.99463 
L 70.962183 -234.444778 
L 69.529355 -234.894927 
L 68.096527 -235.345075 
L 66.663699 -235.795223 
L 65.230871 -236.245372 
L 63.798043 -236.69552 
z
" style="stroke: #dce8ef; stroke-opacity: 0.7"/>
    </defs>
    <g clip-path="url(#pf69e5cd3db)">
     <use xlink:href="#mf8af0b7982" x="0" y="342.884" style="fill: #dce8ef; fill-opacity: 0.7; stroke: #dce8ef; stroke-opacity: 0.7"/>
    </g>
   </g>
   <g id="patch_3">
    <path d="M 49.541406 320.184 
L 49.541406 71.352 
" style="fill: none; stroke: #d9dee3; stroke-width: 0.8; stroke-linejoin: miter; stroke-linecap: square"/>
   </g>
   <g id="patch_4">
    <path d="M 49.541406 320.184 
L 363.187424 320.184 
" style="fill: none; stroke: #d9dee3; stroke-width: 0.8; stroke-linejoin: miter; stroke-linecap: square"/>
   </g>
   <g id="line2d_15">
    <path d="M 63.798043 106.18848 
L 348.930787 195.768 
L 348.930787 195.768 
" clip-path="url(#pf69e5cd3db)" style="fill: none; stroke: #2d6282; stroke-width: 2.6; stroke-linecap: square"/>
   </g>
   <g id="text_11">
    <text style="font-size: 8.8px; font-family: 'Helvetica Neue', 'Helvetica', 'Arial', 'DejaVu Sans', sans-serif; text-anchor: start; fill: #2d6282" x="87.559105" y="91.056177" transform="rotate(-0 87.559105 91.056177)">1950s: 0.80-0.90</text>
   </g>
   <g id="patch_5">
    <path d="M 273.654308 238.155205 
Q 310.420739 217.452507 346.310384 197.243515 
" style="fill: none; stroke: #2d6282; stroke-width: 0.9; stroke-linecap: round"/>
    <path d="M 342.379664 197.437014 
L 346.310384 197.243515 
L 344.106751 200.50419 
z
" style="fill: #2d6282; stroke: #2d6282; stroke-width: 0.9; stroke-linecap: round"/>
   </g>
   <g id="text_12">
    <text style="font-size: 8.8px; font-family: 'Helvetica Neue', 'Helvetica', 'Arial', 'DejaVu Sans', sans-serif; text-anchor: start; fill: #2d6282" x="230.125477" y="247.820337" transform="rotate(-0 230.125477 247.820337)">recent: ~0.50</text>
   </g>
   <g id="text_13">
    <text style="font-size: 7.6px; font-family: 'DejaVu Sans Mono', 'Bitstream Vera Sans Mono', 'Computer Modern Typewriter', 'Andale Mono', 'Nimbus Mono L', 'Courier New', 'Courier', 'Fixed', 'Terminal', monospace; text-anchor: start; fill: #626a73" x="62.087247" y="305.25408" transform="rotate(-0 62.087247 305.25408)">earnings + book value regressed on market cap</text>
   </g>
   <g id="text_14">
    <text style="font-weight: 700; font-size: 12px; font-family: 'Helvetica Neue', 'Helvetica', 'Arial', 'DejaVu Sans', sans-serif; text-anchor: start; fill: #202124" x="49.541406" y="61.352" transform="rotate(-0 49.541406 61.352)">(A) Explanatory power</text>
   </g>
   <g id="PathCollection_1">
    <defs>
     <path id="mfcb4819569" d="M 0 2.915476 
C 0.773193 2.915476 1.514823 2.608283 2.061553 2.061553 
C 2.608283 1.514823 2.915476 0.773193 2.915476 0 
C 2.915476 -0.773193 2.608283 -1.514823 2.061553 -2.061553 
C 1.514823 -2.608283 0.773193 -2.915476 0 -2.915476 
C -0.773193 -2.915476 -1.514823 -2.608283 -2.061553 -2.061553 
C -2.608283 -1.514823 -2.915476 -0.773193 -2.915476 0 
C -2.915476 0.773193 -2.608283 1.514823 -2.061553 2.061553 
C -1.514823 2.608283 -0.773193 2.915476 0 2.915476 
z
" style="stroke: #ffffff; stroke-width: 0.9"/>
    </defs>
    <g clip-path="url(#pf69e5cd3db)">
     <use xlink:href="#mfcb4819569" x="63.798043" y="106.18848" style="fill: #2d6282; stroke: #ffffff; stroke-width: 0.9"/>
     <use xlink:href="#mfcb4819569" x="348.930787" y="195.768" style="fill: #2d6282; stroke: #ffffff; stroke-width: 0.9"/>
    </g>
   </g>
  </g>
  <g id="axes_2">
   <g id="patch_6">
    <path d="M 444.735389 320.184 
L 758.381406 320.184 
L 758.381406 71.352 
L 444.735389 71.352 
z
" style="fill: #ffffff"/>
   </g>
   <g id="matplotlib.axis_3">
    <g id="xtick_5">
     <g id="line2d_16">
      <g>
       <use xlink:href="#md8f8fb0d6d" x="489.541963" y="320.184" style="fill: #626a73; stroke: #626a73; stroke-width: 0.7"/>
      </g>
     </g>
     <g id="text_15">
      <text style="font-size: 9px; font-family: 'Helvetica Neue', 'Helvetica', 'Arial', 'DejaVu Sans', sans-serif; text-anchor: middle; fill: #626a73" x="489.541963" y="333.521891" transform="rotate(-0 489.541963 333.521891)">2003</text>
     </g>
    </g>
    <g id="xtick_6">
     <g id="line2d_17">
      <g>
       <use xlink:href="#md8f8fb0d6d" x="601.558397" y="320.184" style="fill: #626a73; stroke: #626a73; stroke-width: 0.7"/>
      </g>
     </g>
     <g id="text_16">
      <text style="font-size: 9px; font-family: 'Helvetica Neue', 'Helvetica', 'Arial', 'DejaVu Sans', sans-serif; text-anchor: middle; fill: #626a73" x="601.558397" y="333.521891" transform="rotate(-0 601.558397 333.521891)">2008</text>
     </g>
    </g>
    <g id="xtick_7">
     <g id="line2d_18">
      <g>
       <use xlink:href="#md8f8fb0d6d" x="713.574832" y="320.184" style="fill: #626a73; stroke: #626a73; stroke-width: 0.7"/>
      </g>
     </g>
     <g id="text_17">
      <text style="font-size: 9px; font-family: 'Helvetica Neue', 'Helvetica', 'Arial', 'DejaVu Sans', sans-serif; text-anchor: middle; fill: #626a73" x="713.574832" y="333.521891" transform="rotate(-0 713.574832 333.521891)">2013</text>
     </g>
    </g>
   </g>
   <g id="matplotlib.axis_4">
    <g id="ytick_6">
     <g id="line2d_19">
      <path d="M 444.735389 320.184 
L 758.381406 320.184 
" clip-path="url(#p44b7c8ec08)" style="fill: none; stroke: #d9dee3; stroke-opacity: 0.7; stroke-width: 0.7; stroke-linecap: square"/>
     </g>
     <g id="line2d_20">
      <g>
       <use xlink:href="#mc5a57186b2" x="444.735389" y="320.184" style="fill: #626a73; stroke: #626a73; stroke-width: 0.7"/>
      </g>
     </g>
     <g id="text_18">
      <text style="font-size: 9px; font-family: 'Helvetica Neue', 'Helvetica', 'Arial', 'DejaVu Sans', sans-serif; text-anchor: end; fill: #626a73" x="438.235389" y="323.602945" transform="rotate(-0 438.235389 323.602945)">0%</text>
     </g>
    </g>
    <g id="ytick_7">
     <g id="line2d_21">
      <path d="M 444.735389 270.4176 
L 758.381406 270.4176 
" clip-path="url(#p44b7c8ec08)" style="fill: none; stroke: #d9dee3; stroke-opacity: 0.7; stroke-width: 0.7; stroke-linecap: square"/>
     </g>
     <g id="line2d_22">
      <g>
       <use xlink:href="#mc5a57186b2" x="444.735389" y="270.4176" style="fill: #626a73; stroke: #626a73; stroke-width: 0.7"/>
      </g>
     </g>
     <g id="text_19">
      <text style="font-size: 9px; font-family: 'Helvetica Neue', 'Helvetica', 'Arial', 'DejaVu Sans', sans-serif; text-anchor: end; fill: #626a73" x="438.235389" y="273.836545" transform="rotate(-0 438.235389 273.836545)">10%</text>
     </g>
    </g>
    <g id="ytick_8">
     <g id="line2d_23">
      <path d="M 444.735389 220.6512 
L 758.381406 220.6512 
" clip-path="url(#p44b7c8ec08)" style="fill: none; stroke: #d9dee3; stroke-opacity: 0.7; stroke-width: 0.7; stroke-linecap: square"/>
     </g>
     <g id="line2d_24">
      <g>
       <use xlink:href="#mc5a57186b2" x="444.735389" y="220.6512" style="fill: #626a73; stroke: #626a73; stroke-width: 0.7"/>
      </g>
     </g>
     <g id="text_20">
      <text style="font-size: 9px; font-family: 'Helvetica Neue', 'Helvetica', 'Arial', 'DejaVu Sans', sans-serif; text-anchor: end; fill: #626a73" x="438.235389" y="224.070145" transform="rotate(-0 438.235389 224.070145)">20%</text>
     </g>
    </g>
    <g id="ytick_9">
     <g id="line2d_25">
      <path d="M 444.735389 170.8848 
L 758.381406 170.8848 
" clip-path="url(#p44b7c8ec08)" style="fill: none; stroke: #d9dee3; stroke-opacity: 0.7; stroke-width: 0.7; stroke-linecap: square"/>
     </g>
     <g id="line2d_26">
      <g>
       <use xlink:href="#mc5a57186b2" x="444.735389" y="170.8848" style="fill: #626a73; stroke: #626a73; stroke-width: 0.7"/>
      </g>
     </g>
     <g id="text_21">
      <text style="font-size: 9px; font-family: 'Helvetica Neue', 'Helvetica', 'Arial', 'DejaVu Sans', sans-serif; text-anchor: end; fill: #626a73" x="438.235389" y="174.303745" transform="rotate(-0 438.235389 174.303745)">30%</text>
     </g>
    </g>
    <g id="ytick_10">
     <g id="line2d_27">
      <path d="M 444.735389 121.1184 
L 758.381406 121.1184 
" clip-path="url(#p44b7c8ec08)" style="fill: none; stroke: #d9dee3; stroke-opacity: 0.7; stroke-width: 0.7; stroke-linecap: square"/>
     </g>
     <g id="line2d_28">
      <g>
       <use xlink:href="#mc5a57186b2" x="444.735389" y="121.1184" style="fill: #626a73; stroke: #626a73; stroke-width: 0.7"/>
      </g>
     </g>
     <g id="text_22">
      <text style="font-size: 9px; font-family: 'Helvetica Neue', 'Helvetica', 'Arial', 'DejaVu Sans', sans-serif; text-anchor: end; fill: #626a73" x="438.235389" y="124.537345" transform="rotate(-0 438.235389 124.537345)">40%</text>
     </g>
    </g>
    <g id="ytick_11">
     <g id="line2d_29">
      <path d="M 444.735389 71.352 
L 758.381406 71.352 
" clip-path="url(#p44b7c8ec08)" style="fill: none; stroke: #d9dee3; stroke-opacity: 0.7; stroke-width: 0.7; stroke-linecap: square"/>
     </g>
     <g id="line2d_30">
      <g>
       <use xlink:href="#mc5a57186b2" x="444.735389" y="71.352" style="fill: #626a73; stroke: #626a73; stroke-width: 0.7"/>
      </g>
     </g>
     <g id="text_23">
      <text style="font-size: 9px; font-family: 'Helvetica Neue', 'Helvetica', 'Arial', 'DejaVu Sans', sans-serif; text-anchor: end; fill: #626a73" x="438.235389" y="74.770945" transform="rotate(-0 438.235389 74.770945)">50%</text>
     </g>
    </g>
    <g id="text_24">
     <text style="font-size: 10px; font-family: 'Helvetica Neue', 'Helvetica', 'Arial', 'DejaVu Sans', sans-serif; text-anchor: middle; fill: #202124" x="411.829139" y="195.768" transform="rotate(-90 411.829139 195.768)">Listed firms disclosing non-GAAP earnings</text>
    </g>
   </g>
   <g id="FillBetweenPolyCollection_2">
    <defs>
     <path id="md89f4ee851" d="M 489.541963 -122.2328 
L 489.541963 -22.7 
L 713.574832 -22.7 
L 713.574832 -221.7656 
L 713.574832 -221.7656 
L 489.541963 -122.2328 
z
" style="stroke: #f1e2e0; stroke-opacity: 0.7"/>
    </defs>
    <g clip-path="url(#p44b7c8ec08)">
     <use xlink:href="#md89f4ee851" x="0" y="342.884" style="fill: #f1e2e0; fill-opacity: 0.7; stroke: #f1e2e0; stroke-opacity: 0.7"/>
    </g>
   </g>
   <g id="patch_7">
    <path d="M 444.735389 320.184 
L 444.735389 71.352 
" style="fill: none; stroke: #d9dee3; stroke-width: 0.8; stroke-linejoin: miter; stroke-linecap: square"/>
   </g>
   <g id="patch_8">
    <path d="M 444.735389 320.184 
L 758.381406 320.184 
" style="fill: none; stroke: #d9dee3; stroke-width: 0.8; stroke-linejoin: miter; stroke-linecap: square"/>
   </g>
   <g id="line2d_31">
    <path d="M 489.541963 220.6512 
L 713.574832 121.1184 
" clip-path="url(#p44b7c8ec08)" style="fill: none; stroke: #b24a45; stroke-width: 2.6; stroke-linecap: square"/>
    <defs>
     <path id="m3906967a61" d="M 0 3 
C 0.795609 3 1.55874 2.683901 2.12132 2.12132 
C 2.683901 1.55874 3 0.795609 3 0 
C 3 -0.795609 2.683901 -1.55874 2.12132 -2.12132 
C 1.55874 -2.683901 0.795609 -3 0 -3 
C -0.795609 -3 -1.55874 -2.683901 -2.12132 -2.12132 
C -2.683901 -1.55874 -3 -0.795609 -3 0 
C -3 0.795609 -2.683901 1.55874 -2.12132 2.12132 
C -1.55874 2.683901 -0.795609 3 0 3 
z
" style="stroke: #b24a45; stroke-width: 1.4"/>
    </defs>
    <g clip-path="url(#p44b7c8ec08)">
     <use xlink:href="#m3906967a61" x="489.541963" y="220.6512" style="fill: #ffffff; stroke: #b24a45; stroke-width: 1.4"/>
     <use xlink:href="#m3906967a61" x="713.574832" y="121.1184" style="fill: #ffffff; stroke: #b24a45; stroke-width: 1.4"/>
    </g>
   </g>
   <g id="text_25">
    <text style="font-size: 9.4px; font-family: 'Helvetica Neue', 'Helvetica', 'Arial', 'DejaVu Sans', sans-serif; text-anchor: start; fill: #b24a45" x="496.262949" y="257.929477" transform="rotate(-0 496.262949 257.929477)">20%</text>
   </g>
   <g id="text_26">
    <text style="font-size: 9.4px; font-family: 'Helvetica Neue', 'Helvetica', 'Arial', 'DejaVu Sans', sans-serif; text-anchor: end; fill: #b24a45" x="706.853846" y="103.653637" transform="rotate(-0 706.853846 103.653637)">40%</text>
   </g>
   <g id="text_27">
    <text style="font-weight: 700; font-size: 9px; font-family: 'Helvetica Neue', 'Helvetica', 'Arial', 'DejaVu Sans', sans-serif; text-anchor: start; fill: #202124" x="457.281229" y="98.097154" transform="rotate(-0 457.281229 98.097154)">doubled in a decade</text>
   </g>
   <g id="text_28">
    <text style="font-size: 7.6px; font-family: 'DejaVu Sans Mono', 'Bitstream Vera Sans Mono', 'Computer Modern Typewriter', 'Andale Mono', 'Nimbus Mono L', 'Courier New', 'Courier', 'Fixed', 'Terminal', monospace; text-anchor: start; fill: #626a73" x="457.281229" y="305.25408" transform="rotate(-0 457.281229 305.25408)">source: Lev &amp; Gu, The End of Accounting (2016)</text>
   </g>
   <g id="text_29">
    <text style="font-weight: 700; font-size: 12px; font-family: 'Helvetica Neue', 'Helvetica', 'Arial', 'DejaVu Sans', sans-serif; text-anchor: start; fill: #202124" x="444.735389" y="61.352" transform="rotate(-0 444.735389 61.352)">(B) The market's work-around</text>
   </g>
  </g>
  <g id="text_30">
   <text style="font-weight: 700; font-size: 12px; font-family: 'Helvetica Neue', 'Helvetica', 'Arial', 'DejaVu Sans', sans-serif; text-anchor: start; fill: #202124" x="45.581406" y="16.317187" transform="rotate(-0 45.581406 16.317187)">THE END OF ACCOUNTING</text>
  </g>
  <g id="text_31">
   <text style="font-size: 9.5px; font-family: 'Helvetica Neue', 'Helvetica', 'Arial', 'DejaVu Sans', sans-serif; text-anchor: start; fill: #626a73" x="45.581406" y="29.970516" transform="rotate(-0 45.581406 29.970516)">Two readings of one erosion: statutory relevance falls as work-arounds rise.</text>
  </g>
 </g>
 <defs>
  <clipPath id="pf69e5cd3db">
   <rect x="49.541406" y="71.352" width="313.646018" height="248.832"/>
  </clipPath>
  <clipPath id="p44b7c8ec08">
   <rect x="444.735389" y="71.352" width="313.646018" height="248.832"/>
  </clipPath>
 </defs>
</svg>
