<?xml version="1.0" encoding="utf-8" standalone="no"?>
<!DOCTYPE svg PUBLIC "-//W3C//DTD SVG 1.1//EN"
  "http://www.w3.org/Graphics/SVG/1.1/DTD/svg11.dtd">
<svg xmlns:xlink="http://www.w3.org/1999/xlink" width="532.8pt" height="331.2pt" viewBox="0 0 532.8 331.2" xmlns="http://www.w3.org/2000/svg" version="1.1">
 <metadata>
  <rdf:RDF xmlns:dc="http://purl.org/dc/elements/1.1/" xmlns:cc="http://creativecommons.org/ns#" xmlns:rdf="http://www.w3.org/1999/02/22-rdf-syntax-ns#">
   <cc:Work>
    <dc:type rdf:resource="http://purl.org/dc/dcmitype/StillImage"/>
    <dc:format>image/svg+xml</dc:format>
    <dc:creator>
     <cc:Agent>
      <dc:title>scripts/generate-blind-ledger-figures.py</dc:title>
     </cc:Agent>
    </dc:creator>
   </cc:Work>
  </rdf:RDF>
 </metadata>
 <defs>
  <style type="text/css">*{stroke-linejoin: round; stroke-linecap: butt}</style>
 </defs>
 <g id="figure_1">
  <g id="patch_1">
   <path d="M 0 331.2 
L 532.8 331.2 
L 532.8 0 
L 0 0 
z
" style="fill: #ffffff"/>
  </g>
  <g id="axes_1">
   <g id="patch_2">
    <path d="M 71.928 279.864 
L 506.16 279.864 
L 506.16 69.552 
L 71.928 69.552 
z
" style="fill: #ffffff"/>
   </g>
   <g id="patch_3">
    <path d="M 158.7744 279.864 
L 332.4672 279.864 
L 332.4672 69.552 
L 158.7744 69.552 
z
" clip-path="url(#p8c28eb3e62)" style="fill: #626a73; opacity: 0.06; stroke: #626a73; stroke-linejoin: miter"/>
   </g>
   <g id="matplotlib.axis_1">
    <g id="xtick_1">
     <g id="line2d_1">
      <defs>
       <path id="md8f8fb0d6d" d="M 0 0 
L 0 3 
" style="stroke: #626a73; stroke-width: 0.7"/>
      </defs>
      <g>
       <use xlink:href="#md8f8fb0d6d" x="71.928" y="279.864" style="fill: #626a73; stroke: #626a73; stroke-width: 0.7"/>
      </g>
     </g>
     <g id="text_1">
      <text style="font-size: 9.5px; font-family: 'Helvetica Neue', 'Helvetica', 'Arial', 'DejaVu Sans', sans-serif; text-anchor: middle; fill: #626a73" x="71.928" y="293.581773" transform="rotate(-0 71.928 293.581773)">1975</text>
     </g>
    </g>
    <g id="xtick_2">
     <g id="line2d_2">
      <g>
       <use xlink:href="#md8f8fb0d6d" x="158.7744" y="279.864" style="fill: #626a73; stroke: #626a73; stroke-width: 0.7"/>
      </g>
     </g>
     <g id="text_2">
      <text style="font-size: 9.5px; font-family: 'Helvetica Neue', 'Helvetica', 'Arial', 'DejaVu Sans', sans-serif; text-anchor: middle; fill: #626a73" x="158.7744" y="293.581773" transform="rotate(-0 158.7744 293.581773)">1985</text>
     </g>
    </g>
    <g id="xtick_3">
     <g id="line2d_3">
      <g>
       <use xlink:href="#md8f8fb0d6d" x="245.6208" y="279.864" style="fill: #626a73; stroke: #626a73; stroke-width: 0.7"/>
      </g>
     </g>
     <g id="text_3">
      <text style="font-size: 9.5px; font-family: 'Helvetica Neue', 'Helvetica', 'Arial', 'DejaVu Sans', sans-serif; text-anchor: middle; fill: #626a73" x="245.6208" y="293.581773" transform="rotate(-0 245.6208 293.581773)">1995</text>
     </g>
    </g>
    <g id="xtick_4">
     <g id="line2d_4">
      <g>
       <use xlink:href="#md8f8fb0d6d" x="332.4672" y="279.864" style="fill: #626a73; stroke: #626a73; stroke-width: 0.7"/>
      </g>
     </g>
     <g id="text_4">
      <text style="font-size: 9.5px; font-family: 'Helvetica Neue', 'Helvetica', 'Arial', 'DejaVu Sans', sans-serif; text-anchor: middle; fill: #626a73" x="332.4672" y="293.581773" transform="rotate(-0 332.4672 293.581773)">2005</text>
     </g>
    </g>
    <g id="xtick_5">
     <g id="line2d_5">
      <g>
       <use xlink:href="#md8f8fb0d6d" x="419.3136" y="279.864" style="fill: #626a73; stroke: #626a73; stroke-width: 0.7"/>
      </g>
     </g>
     <g id="text_5">
      <text style="font-size: 9.5px; font-family: 'Helvetica Neue', 'Helvetica', 'Arial', 'DejaVu Sans', sans-serif; text-anchor: middle; fill: #626a73" x="419.3136" y="293.581773" transform="rotate(-0 419.3136 293.581773)">2015</text>
     </g>
    </g>
    <g id="xtick_6">
     <g id="line2d_6">
      <g>
       <use xlink:href="#md8f8fb0d6d" x="506.16" y="279.864" style="fill: #626a73; stroke: #626a73; stroke-width: 0.7"/>
      </g>
     </g>
     <g id="text_6">
      <text style="font-size: 9.5px; font-family: 'Helvetica Neue', 'Helvetica', 'Arial', 'DejaVu Sans', sans-serif; text-anchor: middle; fill: #626a73" x="506.16" y="293.581773" transform="rotate(-0 506.16 293.581773)">2025</text>
     </g>
    </g>
   </g>
   <g id="matplotlib.axis_2">
    <g id="ytick_1">
     <g id="line2d_7">
      <path d="M 71.928 279.864 
L 506.16 279.864 
" clip-path="url(#p8c28eb3e62)" style="fill: none; stroke: #d9dee3; stroke-opacity: 0.7; stroke-width: 0.7; stroke-linecap: square"/>
     </g>
     <g id="line2d_8">
      <defs>
       <path id="mc5a57186b2" d="M 0 0 
L -3 0 
" style="stroke: #626a73; stroke-width: 0.7"/>
      </defs>
      <g>
       <use xlink:href="#mc5a57186b2" x="71.928" y="279.864" style="fill: #626a73; stroke: #626a73; stroke-width: 0.7"/>
      </g>
     </g>
     <g id="text_7">
      <text style="font-size: 9.5px; font-family: 'Helvetica Neue', 'Helvetica', 'Arial', 'DejaVu Sans', sans-serif; text-anchor: end; fill: #626a73" x="65.428" y="283.472887" transform="rotate(-0 65.428 283.472887)">0%</text>
     </g>
    </g>
    <g id="ytick_2">
     <g id="line2d_9">
      <path d="M 71.928 237.8016 
L 506.16 237.8016 
" clip-path="url(#p8c28eb3e62)" style="fill: none; stroke: #d9dee3; stroke-opacity: 0.7; stroke-width: 0.7; stroke-linecap: square"/>
     </g>
     <g id="line2d_10">
      <g>
       <use xlink:href="#mc5a57186b2" x="71.928" y="237.8016" style="fill: #626a73; stroke: #626a73; stroke-width: 0.7"/>
      </g>
     </g>
     <g id="text_8">
      <text style="font-size: 9.5px; font-family: 'Helvetica Neue', 'Helvetica', 'Arial', 'DejaVu Sans', sans-serif; text-anchor: end; fill: #626a73" x="65.428" y="241.410487" transform="rotate(-0 65.428 241.410487)">20%</text>
     </g>
    </g>
    <g id="ytick_3">
     <g id="line2d_11">
      <path d="M 71.928 195.7392 
L 506.16 195.7392 
" clip-path="url(#p8c28eb3e62)" style="fill: none; stroke: #d9dee3; stroke-opacity: 0.7; stroke-width: 0.7; stroke-linecap: square"/>
     </g>
     <g id="line2d_12">
      <g>
       <use xlink:href="#mc5a57186b2" x="71.928" y="195.7392" style="fill: #626a73; stroke: #626a73; stroke-width: 0.7"/>
      </g>
     </g>
     <g id="text_9">
      <text style="font-size: 9.5px; font-family: 'Helvetica Neue', 'Helvetica', 'Arial', 'DejaVu Sans', sans-serif; text-anchor: end; fill: #626a73" x="65.428" y="199.348087" transform="rotate(-0 65.428 199.348087)">40%</text>
     </g>
    </g>
    <g id="ytick_4">
     <g id="line2d_13">
      <path d="M 71.928 153.6768 
L 506.16 153.6768 
" clip-path="url(#p8c28eb3e62)" style="fill: none; stroke: #d9dee3; stroke-opacity: 0.7; stroke-width: 0.7; stroke-linecap: square"/>
     </g>
     <g id="line2d_14">
      <g>
       <use xlink:href="#mc5a57186b2" x="71.928" y="153.6768" style="fill: #626a73; stroke: #626a73; stroke-width: 0.7"/>
      </g>
     </g>
     <g id="text_10">
      <text style="font-size: 9.5px; font-family: 'Helvetica Neue', 'Helvetica', 'Arial', 'DejaVu Sans', sans-serif; text-anchor: end; fill: #626a73" x="65.428" y="157.285687" transform="rotate(-0 65.428 157.285687)">60%</text>
     </g>
    </g>
    <g id="ytick_5">
     <g id="line2d_15">
      <path d="M 71.928 111.6144 
L 506.16 111.6144 
" clip-path="url(#p8c28eb3e62)" style="fill: none; stroke: #d9dee3; stroke-opacity: 0.7; stroke-width: 0.7; stroke-linecap: square"/>
     </g>
     <g id="line2d_16">
      <g>
       <use xlink:href="#mc5a57186b2" x="71.928" y="111.6144" style="fill: #626a73; stroke: #626a73; stroke-width: 0.7"/>
      </g>
     </g>
     <g id="text_11">
      <text style="font-size: 9.5px; font-family: 'Helvetica Neue', 'Helvetica', 'Arial', 'DejaVu Sans', sans-serif; text-anchor: end; fill: #626a73" x="65.428" y="115.223287" transform="rotate(-0 65.428 115.223287)">80%</text>
     </g>
    </g>
    <g id="ytick_6">
     <g id="line2d_17">
      <path d="M 71.928 69.552 
L 506.16 69.552 
" clip-path="url(#p8c28eb3e62)" style="fill: none; stroke: #d9dee3; stroke-opacity: 0.7; stroke-width: 0.7; stroke-linecap: square"/>
     </g>
     <g id="line2d_18">
      <g>
       <use xlink:href="#mc5a57186b2" x="71.928" y="69.552" style="fill: #626a73; stroke: #626a73; stroke-width: 0.7"/>
      </g>
     </g>
     <g id="text_12">
      <text style="font-size: 9.5px; font-family: 'Helvetica Neue', 'Helvetica', 'Arial', 'DejaVu Sans', sans-serif; text-anchor: end; fill: #626a73" x="65.428" y="73.160887" transform="rotate(-0 65.428 73.160887)">100%</text>
     </g>
    </g>
    <g id="text_13">
     <text style="font-size: 10.5px; font-family: 'Helvetica Neue', 'Helvetica', 'Arial', 'DejaVu Sans', sans-serif; text-anchor: middle; fill: #202124" x="31.74593" y="174.708" transform="rotate(-90 31.74593 174.708)">Share of S&amp;P 500 market value</text>
    </g>
   </g>
   <g id="FillBetweenPolyCollection_1">
    <defs>
     <path id="m8d4887be47" d="M 71.928 -87.08904 
L 71.928 -51.336 
L 158.7744 -51.336 
L 245.6208 -51.336 
L 332.4672 -51.336 
L 419.3136 -51.336 
L 462.7368 -51.336 
L 506.16 -51.336 
L 506.16 -244.82304 
L 506.16 -244.82304 
L 462.7368 -240.6168 
L 419.3136 -227.99808 
L 332.4672 -217.48248 
L 245.6208 -194.34816 
L 158.7744 -118.63584 
L 71.928 -87.08904 
z
" style="stroke: #f1e2e0"/>
    </defs>
    <g clip-path="url(#p8c28eb3e62)">
     <use xlink:href="#m8d4887be47" x="0" y="331.2" style="fill: #f1e2e0; stroke: #f1e2e0"/>
    </g>
   </g>
   <g id="FillBetweenPolyCollection_2">
    <defs>
     <path id="m8ed43c3cfe" d="M 71.928 -261.648 
L 71.928 -87.08904 
L 158.7744 -118.63584 
L 245.6208 -194.34816 
L 332.4672 -217.48248 
L 419.3136 -227.99808 
L 462.7368 -240.6168 
L 506.16 -244.82304 
L 506.16 -261.648 
L 506.16 -261.648 
L 462.7368 -261.648 
L 419.3136 -261.648 
L 332.4672 -261.648 
L 245.6208 -261.648 
L 158.7744 -261.648 
L 71.928 -261.648 
z
" style="stroke: #dce8ef"/>
    </defs>
    <g clip-path="url(#p8c28eb3e62)">
     <use xlink:href="#m8ed43c3cfe" x="0" y="331.2" style="fill: #dce8ef; stroke: #dce8ef"/>
    </g>
   </g>
   <g id="patch_4">
    <path d="M 71.928 279.864 
L 71.928 69.552 
" style="fill: none; stroke: #d9dee3; stroke-width: 0.8; stroke-linejoin: miter; stroke-linecap: square"/>
   </g>
   <g id="patch_5">
    <path d="M 71.928 279.864 
L 506.16 279.864 
" style="fill: none; stroke: #d9dee3; stroke-width: 0.8; stroke-linejoin: miter; stroke-linecap: square"/>
   </g>
   <g id="patch_6">
    <path d="M 161.781639 82.17072 
Q 245.621847 82.17072 329.462055 82.17072 
" style="fill: none; stroke: #626a73; stroke-width: 0.9; stroke-linecap: round"/>
    <path d="M 165.981639 84.27072 
L 161.781639 82.17072 
L 165.981639 80.07072 
" style="fill: none; stroke: #626a73; stroke-width: 0.9; stroke-linecap: round"/>
    <path d="M 325.262055 80.07072 
L 329.462055 82.17072 
L 325.262055 84.27072 
" style="fill: none; stroke: #626a73; stroke-width: 0.9; stroke-linecap: round"/>
   </g>
   <g id="text_14">
    <text style="font-size: 9px; font-family: 'Helvetica Neue', 'Helvetica', 'Arial', 'DejaVu Sans', sans-serif; text-anchor: middle; fill: #626a73" x="245.6208" y="97.127682" transform="rotate(-0 245.6208 97.127682)">+47 pp in 20 years</text>
   </g>
   <g id="patch_7">
    <path d="M 272.040089 201.443026 
Q 238.05454 188.433688 204.904309 175.744102 
" style="fill: none; stroke: #626a73; stroke-width: 0.8; stroke-linecap: round"/>
    <path d="M 207.441676 178.514259 
L 204.904309 175.744102 
L 208.642855 175.376303 
z
" style="fill: #626a73; stroke: #626a73; stroke-width: 0.8; stroke-linecap: round"/>
   </g>
   <g id="text_15">
    <text style="font-size: 8.4px; font-family: 'Helvetica Neue', 'Helvetica', 'Arial', 'DejaVu Sans', sans-serif; text-anchor: start; fill: #626a73" x="254.30544" y="210.539951" transform="rotate(-0 254.30544 210.539951)">~1990 crossover</text>
   </g>
   <g id="text_16">
    <text style="font-weight: 700; font-size: 12.5px; font-family: 'Helvetica Neue', 'Helvetica', 'Arial', 'DejaVu Sans', sans-serif; text-anchor: start; fill: #2d6282" x="124.03584" y="129.583799" transform="rotate(-0 124.03584 129.583799)">Tangible</text>
   </g>
   <g id="text_17">
    <text style="font-weight: 700; font-size: 12.5px; font-family: 'Helvetica Neue', 'Helvetica', 'Arial', 'DejaVu Sans', sans-serif; text-anchor: end; fill: #b24a45" x="393.25968" y="232.636679" transform="rotate(-0 393.25968 232.636679)">Intangible</text>
   </g>
   <g id="line2d_19">
    <path d="M 71.928 244.11096 
L 158.7744 212.56416 
L 245.6208 136.85184 
L 332.4672 113.71752 
L 419.3136 103.20192 
L 462.7368 90.5832 
L 506.16 86.37696 
" clip-path="url(#p8c28eb3e62)" style="fill: none; stroke: #202124; stroke-width: 2; stroke-linecap: square"/>
   </g>
   <g id="PathCollection_1">
    <defs>
     <path id="m0721e73e34" d="M 0 2.345208 
C 0.621956 2.345208 1.218523 2.098102 1.658312 1.658312 
C 2.098102 1.218523 2.345208 0.621956 2.345208 0 
C 2.345208 -0.621956 2.098102 -1.218523 1.658312 -1.658312 
C 1.218523 -2.098102 0.621956 -2.345208 0 -2.345208 
C -0.621956 -2.345208 -1.218523 -2.098102 -1.658312 -1.658312 
C -2.098102 -1.218523 -2.345208 -0.621956 -2.345208 0 
C -2.345208 0.621956 -2.098102 1.218523 -1.658312 1.658312 
C -1.218523 2.098102 -0.621956 2.345208 0 2.345208 
z
" style="stroke: #ffffff; stroke-width: 0.9"/>
    </defs>
    <g clip-path="url(#p8c28eb3e62)">
     <use xlink:href="#m0721e73e34" x="71.928" y="244.11096" style="fill: #202124; stroke: #ffffff; stroke-width: 0.9"/>
     <use xlink:href="#m0721e73e34" x="158.7744" y="212.56416" style="fill: #202124; stroke: #ffffff; stroke-width: 0.9"/>
     <use xlink:href="#m0721e73e34" x="245.6208" y="136.85184" style="fill: #202124; stroke: #ffffff; stroke-width: 0.9"/>
     <use xlink:href="#m0721e73e34" x="332.4672" y="113.71752" style="fill: #202124; stroke: #ffffff; stroke-width: 0.9"/>
     <use xlink:href="#m0721e73e34" x="419.3136" y="103.20192" style="fill: #202124; stroke: #ffffff; stroke-width: 0.9"/>
     <use xlink:href="#m0721e73e34" x="462.7368" y="90.5832" style="fill: #202124; stroke: #ffffff; stroke-width: 0.9"/>
     <use xlink:href="#m0721e73e34" x="506.16" y="86.37696" style="fill: #202124; stroke: #ffffff; stroke-width: 0.9"/>
    </g>
   </g>
   <g id="PathCollection_2">
    <defs>
     <path id="mc81b33b46d" d="M 0 2.738613 
C 0.726289 2.738613 1.422928 2.450055 1.936492 1.936492 
C 2.450055 1.422928 2.738613 0.726289 2.738613 0 
C 2.738613 -0.726289 2.450055 -1.422928 1.936492 -1.936492 
C 1.422928 -2.450055 0.726289 -2.738613 0 -2.738613 
C -0.726289 -2.738613 -1.422928 -2.450055 -1.936492 -1.936492 
C -2.450055 -1.422928 -2.738613 -0.726289 -2.738613 0 
C -2.738613 0.726289 -2.450055 1.422928 -1.936492 1.936492 
C -1.422928 2.450055 -0.726289 2.738613 0 2.738613 
z
" style="stroke: #ffffff; stroke-width: 0.9"/>
    </defs>
    <g clip-path="url(#p8c28eb3e62)">
     <use xlink:href="#mc81b33b46d" x="202.1976" y="174.708" style="fill: #202124; stroke: #ffffff; stroke-width: 0.9"/>
    </g>
   </g>
   <g id="text_18">
    <g id="patch_8">
     <path d="M 82.26696 183.271729 
L 150.90546 183.271729 
L 150.90546 157.731791 
L 82.26696 157.731791 
z
" style="fill: #ffffff; stroke: #d9dee3; stroke-width: 0.8; stroke-linejoin: miter"/>
    </g>
    <text style="font-size: 8.4px; font-family: 'Helvetica Neue', 'Helvetica', 'Arial', 'DejaVu Sans', sans-serif; fill: #202124" transform="translate(84.95496 167.642643)">1975</text>
    <text style="font-size: 8.4px; font-family: 'Helvetica Neue', 'Helvetica', 'Arial', 'DejaVu Sans', sans-serif; fill: #202124" transform="translate(84.95496 177.72494)">17% intangible</text>
   </g>
   <g id="text_19">
    <g id="patch_9">
     <path d="M 431.52486 162.240529 
L 500.16336 162.240529 
L 500.16336 136.700591 
L 431.52486 136.700591 
z
" style="fill: #ffffff; stroke: #d9dee3; stroke-width: 0.8; stroke-linejoin: miter"/>
    </g>
    <text style="font-size: 8.4px; font-family: 'Helvetica Neue', 'Helvetica', 'Arial', 'DejaVu Sans', sans-serif; fill: #202124" transform="translate(476.09736 146.611443)">2025</text>
    <text style="font-size: 8.4px; font-family: 'Helvetica Neue', 'Helvetica', 'Arial', 'DejaVu Sans', sans-serif; fill: #202124" transform="translate(434.21286 156.69374)">92% intangible</text>
   </g>
  </g>
  <g id="text_20">
   <text style="font-weight: 700; font-size: 13px; font-family: 'Helvetica Neue', 'Helvetica', 'Arial', 'DejaVu Sans', sans-serif; text-anchor: start; fill: #202124" x="33.0336" y="24.780953" transform="rotate(-0 33.0336 24.780953)">THE FIFTY-YEAR INVERSION</text>
  </g>
  <g id="text_21">
   <text style="font-size: 10px; font-family: 'Helvetica Neue', 'Helvetica', 'Arial', 'DejaVu Sans', sans-serif; text-anchor: start; fill: #626a73" x="33.0336" y="39.062437" transform="rotate(-0 33.0336 39.062437)">Tangible vs intangible share of S&amp;P 500 market value, 1975-2025.</text>
  </g>
  <g id="text_22">
   <text style="font-size: 7.6px; font-family: 'DejaVu Sans Mono', 'Bitstream Vera Sans Mono', 'Computer Modern Typewriter', 'Andale Mono', 'Nimbus Mono L', 'Courier New', 'Courier', 'Fixed', 'Terminal', monospace; text-anchor: start; fill: #626a73" x="33.0336" y="318.6144" transform="rotate(-0 33.0336 318.6144)">source: Ocean Tomo / J.S. Held IAMV study  |  intangible share = residual of market cap</text>
  </g>
 </g>
 <defs>
  <clipPath id="p8c28eb3e62">
   <rect x="71.928" y="69.552" width="434.232" height="210.312"/>
  </clipPath>
 </defs>
</svg>
