<?xml version="1.0" encoding="utf-8" standalone="no"?>
<!DOCTYPE svg PUBLIC "-//W3C//DTD SVG 1.1//EN"
  "http://www.w3.org/Graphics/SVG/1.1/DTD/svg11.dtd">
<svg xmlns:xlink="http://www.w3.org/1999/xlink" width="532.8pt" height="331.2pt" viewBox="0 0 532.8 331.2" xmlns="http://www.w3.org/2000/svg" version="1.1">
 <metadata>
  <rdf:RDF xmlns:dc="http://purl.org/dc/elements/1.1/" xmlns:cc="http://creativecommons.org/ns#" xmlns:rdf="http://www.w3.org/1999/02/22-rdf-syntax-ns#">
   <cc:Work>
    <dc:type rdf:resource="http://purl.org/dc/dcmitype/StillImage"/>
    <dc:format>image/svg+xml</dc:format>
    <dc:creator>
     <cc:Agent>
      <dc:title>scripts/generate-blind-ledger-figures.py</dc:title>
     </cc:Agent>
    </dc:creator>
   </cc:Work>
  </rdf:RDF>
 </metadata>
 <defs>
  <style type="text/css">*{stroke-linejoin: round; stroke-linecap: butt}</style>
 </defs>
 <g id="figure_1">
  <g id="patch_1">
   <path d="M 0 331.2 
L 532.8 331.2 
L 532.8 0 
L 0 0 
z
" style="fill: #ffffff"/>
  </g>
  <g id="axes_1">
   <g id="patch_2">
    <path d="M 55.944 278.208 
L 251.759385 278.208 
L 251.759385 66.24 
L 55.944 66.24 
z
" style="fill: #ffffff"/>
   </g>
   <g id="matplotlib.axis_1">
    <g id="xtick_1">
     <g id="line2d_1">
      <defs>
       <path id="md8f8fb0d6d" d="M 0 0 
L 0 3 
" style="stroke: #626a73; stroke-width: 0.7"/>
      </defs>
      <g>
       <use xlink:href="#md8f8fb0d6d" x="70.778499" y="278.208" style="fill: #626a73; stroke: #626a73; stroke-width: 0.7"/>
      </g>
     </g>
     <g id="text_1">
      <text style="font-size: 9.5px; font-family: 'Helvetica Neue', 'Helvetica', 'Arial', 'DejaVu Sans', sans-serif; text-anchor: middle; fill: #626a73" x="70.778499" y="291.925773" transform="rotate(-0 70.778499 291.925773)">1955</text>
     </g>
    </g>
    <g id="xtick_2">
     <g id="line2d_2">
      <g>
       <use xlink:href="#md8f8fb0d6d" x="159.785492" y="278.208" style="fill: #626a73; stroke: #626a73; stroke-width: 0.7"/>
      </g>
     </g>
     <g id="text_2">
      <text style="font-size: 9.5px; font-family: 'Helvetica Neue', 'Helvetica', 'Arial', 'DejaVu Sans', sans-serif; text-anchor: middle; fill: #626a73" x="159.785492" y="291.925773" transform="rotate(-0 159.785492 291.925773)">1985</text>
     </g>
    </g>
    <g id="xtick_3">
     <g id="line2d_3">
      <g>
       <use xlink:href="#md8f8fb0d6d" x="248.792485" y="278.208" style="fill: #626a73; stroke: #626a73; stroke-width: 0.7"/>
      </g>
     </g>
     <g id="text_3">
      <text style="font-size: 9.5px; font-family: 'Helvetica Neue', 'Helvetica', 'Arial', 'DejaVu Sans', sans-serif; text-anchor: middle; fill: #626a73" x="248.792485" y="291.925773" transform="rotate(-0 248.792485 291.925773)">2015</text>
     </g>
    </g>
   </g>
   <g id="matplotlib.axis_2">
    <g id="ytick_1">
     <g id="line2d_4">
      <path d="M 55.944 278.208 
L 251.759385 278.208 
" clip-path="url(#p58d1df6bf5)" style="fill: none; stroke: #d9dee3; stroke-opacity: 0.7; stroke-width: 0.7; stroke-linecap: square"/>
     </g>
     <g id="line2d_5">
      <defs>
       <path id="mc5a57186b2" d="M 0 0 
L -3 0 
" style="stroke: #626a73; stroke-width: 0.7"/>
      </defs>
      <g>
       <use xlink:href="#mc5a57186b2" x="55.944" y="278.208" style="fill: #626a73; stroke: #626a73; stroke-width: 0.7"/>
      </g>
     </g>
     <g id="text_4">
      <text style="font-size: 9.5px; font-family: 'Helvetica Neue', 'Helvetica', 'Arial', 'DejaVu Sans', sans-serif; text-anchor: end; fill: #626a73" x="49.444" y="281.816887" transform="rotate(-0 49.444 281.816887)">0.00</text>
     </g>
    </g>
    <g id="ytick_2">
     <g id="line2d_6">
      <path d="M 55.944 225.216 
L 251.759385 225.216 
" clip-path="url(#p58d1df6bf5)" style="fill: none; stroke: #d9dee3; stroke-opacity: 0.7; stroke-width: 0.7; stroke-linecap: square"/>
     </g>
     <g id="line2d_7">
      <g>
       <use xlink:href="#mc5a57186b2" x="55.944" y="225.216" style="fill: #626a73; stroke: #626a73; stroke-width: 0.7"/>
      </g>
     </g>
     <g id="text_5">
      <text style="font-size: 9.5px; font-family: 'Helvetica Neue', 'Helvetica', 'Arial', 'DejaVu Sans', sans-serif; text-anchor: end; fill: #626a73" x="49.444" y="228.824887" transform="rotate(-0 49.444 228.824887)">0.25</text>
     </g>
    </g>
    <g id="ytick_3">
     <g id="line2d_8">
      <path d="M 55.944 172.224 
L 251.759385 172.224 
" clip-path="url(#p58d1df6bf5)" style="fill: none; stroke: #d9dee3; stroke-opacity: 0.7; stroke-width: 0.7; stroke-linecap: square"/>
     </g>
     <g id="line2d_9">
      <g>
       <use xlink:href="#mc5a57186b2" x="55.944" y="172.224" style="fill: #626a73; stroke: #626a73; stroke-width: 0.7"/>
      </g>
     </g>
     <g id="text_6">
      <text style="font-size: 9.5px; font-family: 'Helvetica Neue', 'Helvetica', 'Arial', 'DejaVu Sans', sans-serif; text-anchor: end; fill: #626a73" x="49.444" y="175.832887" transform="rotate(-0 49.444 175.832887)">0.50</text>
     </g>
    </g>
    <g id="ytick_4">
     <g id="line2d_10">
      <path d="M 55.944 119.232 
L 251.759385 119.232 
" clip-path="url(#p58d1df6bf5)" style="fill: none; stroke: #d9dee3; stroke-opacity: 0.7; stroke-width: 0.7; stroke-linecap: square"/>
     </g>
     <g id="line2d_11">
      <g>
       <use xlink:href="#mc5a57186b2" x="55.944" y="119.232" style="fill: #626a73; stroke: #626a73; stroke-width: 0.7"/>
      </g>
     </g>
     <g id="text_7">
      <text style="font-size: 9.5px; font-family: 'Helvetica Neue', 'Helvetica', 'Arial', 'DejaVu Sans', sans-serif; text-anchor: end; fill: #626a73" x="49.444" y="122.840887" transform="rotate(-0 49.444 122.840887)">0.75</text>
     </g>
    </g>
    <g id="ytick_5">
     <g id="line2d_12">
      <path d="M 55.944 66.24 
L 251.759385 66.24 
" clip-path="url(#p58d1df6bf5)" style="fill: none; stroke: #d9dee3; stroke-opacity: 0.7; stroke-width: 0.7; stroke-linecap: square"/>
     </g>
     <g id="line2d_13">
      <g>
       <use xlink:href="#mc5a57186b2" x="55.944" y="66.24" style="fill: #626a73; stroke: #626a73; stroke-width: 0.7"/>
      </g>
     </g>
     <g id="text_8">
      <text style="font-size: 9.5px; font-family: 'Helvetica Neue', 'Helvetica', 'Arial', 'DejaVu Sans', sans-serif; text-anchor: end; fill: #626a73" x="49.444" y="69.848887" transform="rotate(-0 49.444 69.848887)">1.00</text>
     </g>
    </g>
    <g id="text_9">
     <!-- $R^2$ : accounting $\rightarrow$ market cap -->
     <g style="fill: #202124" transform="translate(21.769195 252.3915) rotate(-90)">
      <text>
       <tspan x="0" y="-0.205687" style="font-style: oblique; font-size: 10.5px; font-family: 'DejaVu Sans'; fill: #202124">R</tspan>
       <tspan x="8.032568" y="-4.542187" style="font-size: 7.35px; font-family: 'DejaVu Sans'; fill: #202124">2</tspan>
       <tspan x="12.995972" y="-0.205687" style="font-size: 10.5px; font-family: 'DejaVu Sans'; fill: #202124"> </tspan>
       <tspan x="16.333618" y="-0.205687" style="font-size: 10.5px; font-family: 'DejaVu Sans'; fill: #202124">:</tspan>
       <tspan x="19.871216" y="-0.205687" style="font-size: 10.5px; font-family: 'DejaVu Sans'; fill: #202124"> </tspan>
       <tspan x="23.208862" y="-0.205687" style="font-size: 10.5px; font-family: 'DejaVu Sans'; fill: #202124">a</tspan>
       <tspan x="29.643188" y="-0.205687" style="font-size: 10.5px; font-family: 'DejaVu Sans'; fill: #202124">c</tspan>
       <tspan x="35.416138" y="-0.205687" style="font-size: 10.5px; font-family: 'DejaVu Sans'; fill: #202124">c</tspan>
       <tspan x="41.189087" y="-0.205687" style="font-size: 10.5px; font-family: 'DejaVu Sans'; fill: #202124">o</tspan>
       <tspan x="47.613159" y="-0.205687" style="font-size: 10.5px; font-family: 'DejaVu Sans'; fill: #202124">u</tspan>
       <tspan x="54.267944" y="-0.205687" style="font-size: 10.5px; font-family: 'DejaVu Sans'; fill: #202124">n</tspan>
       <tspan x="60.922729" y="-0.205687" style="font-size: 10.5px; font-family: 'DejaVu Sans'; fill: #202124">t</tspan>
       <tspan x="65.039673" y="-0.205687" style="font-size: 10.5px; font-family: 'DejaVu Sans'; fill: #202124">i</tspan>
       <tspan x="67.956909" y="-0.205687" style="font-size: 10.5px; font-family: 'DejaVu Sans'; fill: #202124">n</tspan>
       <tspan x="74.611694" y="-0.205687" style="font-size: 10.5px; font-family: 'DejaVu Sans'; fill: #202124">g</tspan>
       <tspan x="81.276733" y="-0.205687" style="font-size: 10.5px; font-family: 'DejaVu Sans'; fill: #202124"> </tspan>
       <tspan x="86.660034" y="-0.205687" style="font-size: 10.5px; font-family: 'DejaVu Sans'; fill: #202124">→</tspan>
       <tspan x="97.50354" y="-0.205687" style="font-size: 10.5px; font-family: 'DejaVu Sans'; fill: #202124"> </tspan>
       <tspan x="100.841187" y="-0.205687" style="font-size: 10.5px; font-family: 'DejaVu Sans'; fill: #202124">m</tspan>
       <tspan x="111.069458" y="-0.205687" style="font-size: 10.5px; font-family: 'DejaVu Sans'; fill: #202124">a</tspan>
       <tspan x="117.503784" y="-0.205687" style="font-size: 10.5px; font-family: 'DejaVu Sans'; fill: #202124">r</tspan>
       <tspan x="121.820679" y="-0.205687" style="font-size: 10.5px; font-family: 'DejaVu Sans'; fill: #202124">k</tspan>
       <tspan x="127.901245" y="-0.205687" style="font-size: 10.5px; font-family: 'DejaVu Sans'; fill: #202124">e</tspan>
       <tspan x="134.361206" y="-0.205687" style="font-size: 10.5px; font-family: 'DejaVu Sans'; fill: #202124">t</tspan>
       <tspan x="138.478149" y="-0.205687" style="font-size: 10.5px; font-family: 'DejaVu Sans'; fill: #202124"> </tspan>
       <tspan x="141.815796" y="-0.205687" style="font-size: 10.5px; font-family: 'DejaVu Sans'; fill: #202124">c</tspan>
       <tspan x="147.588745" y="-0.205687" style="font-size: 10.5px; font-family: 'DejaVu Sans'; fill: #202124">a</tspan>
       <tspan x="154.023071" y="-0.205687" style="font-size: 10.5px; font-family: 'DejaVu Sans'; fill: #202124">p</tspan>
      </text>
     </g>
    </g>
   </g>
   <g id="FillBetweenPolyCollection_1">
    <defs>
     <path id="m8ae38f5fed" d="M 64.844699 -235.28448 
L 64.844699 -52.992 
L 65.739242 -52.992 
L 66.633785 -52.992 
L 67.528327 -52.992 
L 68.42287 -52.992 
L 69.317413 -52.992 
L 70.211955 -52.992 
L 71.106498 -52.992 
L 72.00104 -52.992 
L 72.895583 -52.992 
L 73.790126 -52.992 
L 74.684668 -52.992 
L 75.579211 -52.992 
L 76.473754 -52.992 
L 77.368296 -52.992 
L 78.262839 -52.992 
L 79.157382 -52.992 
L 80.051924 -52.992 
L 80.946467 -52.992 
L 81.84101 -52.992 
L 82.735552 -52.992 
L 83.630095 -52.992 
L 84.524637 -52.992 
L 85.41918 -52.992 
L 86.313723 -52.992 
L 87.208265 -52.992 
L 88.102808 -52.992 
L 88.997351 -52.992 
L 89.891893 -52.992 
L 90.786436 -52.992 
L 91.680979 -52.992 
L 92.575521 -52.992 
L 93.470064 -52.992 
L 94.364607 -52.992 
L 95.259149 -52.992 
L 96.153692 -52.992 
L 97.048234 -52.992 
L 97.942777 -52.992 
L 98.83732 -52.992 
L 99.731862 -52.992 
L 100.626405 -52.992 
L 101.520948 -52.992 
L 102.41549 -52.992 
L 103.310033 -52.992 
L 104.204576 -52.992 
L 105.099118 -52.992 
L 105.993661 -52.992 
L 106.888204 -52.992 
L 107.782746 -52.992 
L 108.677289 -52.992 
L 109.571831 -52.992 
L 110.466374 -52.992 
L 111.360917 -52.992 
L 112.255459 -52.992 
L 113.150002 -52.992 
L 114.044545 -52.992 
L 114.939087 -52.992 
L 115.83363 -52.992 
L 116.728173 -52.992 
L 117.622715 -52.992 
L 118.517258 -52.992 
L 119.411801 -52.992 
L 120.306343 -52.992 
L 121.200886 -52.992 
L 122.095428 -52.992 
L 122.989971 -52.992 
L 123.884514 -52.992 
L 124.779056 -52.992 
L 125.673599 -52.992 
L 126.568142 -52.992 
L 127.462684 -52.992 
L 128.357227 -52.992 
L 129.25177 -52.992 
L 130.146312 -52.992 
L 131.040855 -52.992 
L 131.935398 -52.992 
L 132.82994 -52.992 
L 133.724483 -52.992 
L 134.619025 -52.992 
L 135.513568 -52.992 
L 136.408111 -52.992 
L 137.302653 -52.992 
L 138.197196 -52.992 
L 139.091739 -52.992 
L 139.986281 -52.992 
L 140.880824 -52.992 
L 141.775367 -52.992 
L 142.669909 -52.992 
L 143.564452 -52.992 
L 144.458995 -52.992 
L 145.353537 -52.992 
L 146.24808 -52.992 
L 147.142622 -52.992 
L 148.037165 -52.992 
L 148.931708 -52.992 
L 149.82625 -52.992 
L 150.720793 -52.992 
L 151.615336 -52.992 
L 152.509878 -52.992 
L 153.404421 -52.992 
L 154.298964 -52.992 
L 155.193506 -52.992 
L 156.088049 -52.992 
L 156.982592 -52.992 
L 157.877134 -52.992 
L 158.771677 -52.992 
L 159.666219 -52.992 
L 160.560762 -52.992 
L 161.455305 -52.992 
L 162.349847 -52.992 
L 163.24439 -52.992 
L 164.138933 -52.992 
L 165.033475 -52.992 
L 165.928018 -52.992 
L 166.822561 -52.992 
L 167.717103 -52.992 
L 168.611646 -52.992 
L 169.506189 -52.992 
L 170.400731 -52.992 
L 171.295274 -52.992 
L 172.189816 -52.992 
L 173.084359 -52.992 
L 173.978902 -52.992 
L 174.873444 -52.992 
L 175.767987 -52.992 
L 176.66253 -52.992 
L 177.557072 -52.992 
L 178.451615 -52.992 
L 179.346158 -52.992 
L 180.2407 -52.992 
L 181.135243 -52.992 
L 182.029786 -52.992 
L 182.924328 -52.992 
L 183.818871 -52.992 
L 184.713414 -52.992 
L 185.607956 -52.992 
L 186.502499 -52.992 
L 187.397041 -52.992 
L 188.291584 -52.992 
L 189.186127 -52.992 
L 190.080669 -52.992 
L 190.975212 -52.992 
L 191.869755 -52.992 
L 192.764297 -52.992 
L 193.65884 -52.992 
L 194.553383 -52.992 
L 195.447925 -52.992 
L 196.342468 -52.992 
L 197.237011 -52.992 
L 198.131553 -52.992 
L 199.026096 -52.992 
L 199.920638 -52.992 
L 200.815181 -52.992 
L 201.709724 -52.992 
L 202.604266 -52.992 
L 203.498809 -52.992 
L 204.393352 -52.992 
L 205.287894 -52.992 
L 206.182437 -52.992 
L 207.07698 -52.992 
L 207.971522 -52.992 
L 208.866065 -52.992 
L 209.760608 -52.992 
L 210.65515 -52.992 
L 211.549693 -52.992 
L 212.444235 -52.992 
L 213.338778 -52.992 
L 214.233321 -52.992 
L 215.127863 -52.992 
L 216.022406 -52.992 
L 216.916949 -52.992 
L 217.811491 -52.992 
L 218.706034 -52.992 
L 219.600577 -52.992 
L 220.495119 -52.992 
L 221.389662 -52.992 
L 222.284205 -52.992 
L 223.178747 -52.992 
L 224.07329 -52.992 
L 224.967832 -52.992 
L 225.862375 -52.992 
L 226.756918 -52.992 
L 227.65146 -52.992 
L 228.546003 -52.992 
L 229.440546 -52.992 
L 230.335088 -52.992 
L 231.229631 -52.992 
L 232.124174 -52.992 
L 233.018716 -52.992 
L 233.913259 -52.992 
L 234.807802 -52.992 
L 235.702344 -52.992 
L 236.596887 -52.992 
L 237.491429 -52.992 
L 238.385972 -52.992 
L 239.280515 -52.992 
L 240.175057 -52.992 
L 241.0696 -52.992 
L 241.964143 -52.992 
L 242.858685 -52.992 
L 242.858685 -158.976 
L 242.858685 -158.976 
L 241.964143 -159.35946 
L 241.0696 -159.742919 
L 240.175057 -160.126379 
L 239.280515 -160.509839 
L 238.385972 -160.893298 
L 237.491429 -161.276758 
L 236.596887 -161.660218 
L 235.702344 -162.043678 
L 234.807802 -162.427137 
L 233.913259 -162.810597 
L 233.018716 -163.194057 
L 232.124174 -163.577516 
L 231.229631 -163.960976 
L 230.335088 -164.344436 
L 229.440546 -164.727895 
L 228.546003 -165.111355 
L 227.65146 -165.494815 
L 226.756918 -165.878275 
L 225.862375 -166.261734 
L 224.967832 -166.645194 
L 224.07329 -167.028654 
L 223.178747 -167.412113 
L 222.284205 -167.795573 
L 221.389662 -168.179033 
L 220.495119 -168.562492 
L 219.600577 -168.945952 
L 218.706034 -169.329412 
L 217.811491 -169.712872 
L 216.916949 -170.096331 
L 216.022406 -170.479791 
L 215.127863 -170.863251 
L 214.233321 -171.24671 
L 213.338778 -171.63017 
L 212.444235 -172.01363 
L 211.549693 -172.397089 
L 210.65515 -172.780549 
L 209.760608 -173.164009 
L 208.866065 -173.547469 
L 207.971522 -173.930928 
L 207.07698 -174.314388 
L 206.182437 -174.697848 
L 205.287894 -175.081307 
L 204.393352 -175.464767 
L 203.498809 -175.848227 
L 202.604266 -176.231686 
L 201.709724 -176.615146 
L 200.815181 -176.998606 
L 199.920638 -177.382066 
L 199.026096 -177.765525 
L 198.131553 -178.148985 
L 197.237011 -178.532445 
L 196.342468 -178.915904 
L 195.447925 -179.299364 
L 194.553383 -179.682824 
L 193.65884 -180.066283 
L 192.764297 -180.449743 
L 191.869755 -180.833203 
L 190.975212 -181.216663 
L 190.080669 -181.600122 
L 189.186127 -181.983582 
L 188.291584 -182.367042 
L 187.397041 -182.750501 
L 186.502499 -183.133961 
L 185.607956 -183.517421 
L 184.713414 -183.90088 
L 183.818871 -184.28434 
L 182.924328 -184.6678 
L 182.029786 -185.051259 
L 181.135243 -185.434719 
L 180.2407 -185.818179 
L 179.346158 -186.201639 
L 178.451615 -186.585098 
L 177.557072 -186.968558 
L 176.66253 -187.352018 
L 175.767987 -187.735477 
L 174.873444 -188.118937 
L 173.978902 -188.502397 
L 173.084359 -188.885856 
L 172.189816 -189.269316 
L 171.295274 -189.652776 
L 170.400731 -190.036236 
L 169.506189 -190.419695 
L 168.611646 -190.803155 
L 167.717103 -191.186615 
L 166.822561 -191.570074 
L 165.928018 -191.953534 
L 165.033475 -192.336994 
L 164.138933 -192.720453 
L 163.24439 -193.103913 
L 162.349847 -193.487373 
L 161.455305 -193.870833 
L 160.560762 -194.254292 
L 159.666219 -194.637752 
L 158.771677 -195.021212 
L 157.877134 -195.404671 
L 156.982592 -195.788131 
L 156.088049 -196.171591 
L 155.193506 -196.55505 
L 154.298964 -196.93851 
L 153.404421 -197.32197 
L 152.509878 -197.70543 
L 151.615336 -198.088889 
L 150.720793 -198.472349 
L 149.82625 -198.855809 
L 148.931708 -199.239268 
L 148.037165 -199.622728 
L 147.142622 -200.006188 
L 146.24808 -200.389647 
L 145.353537 -200.773107 
L 144.458995 -201.156567 
L 143.564452 -201.540027 
L 142.669909 -201.923486 
L 141.775367 -202.306946 
L 140.880824 -202.690406 
L 139.986281 -203.073865 
L 139.091739 -203.457325 
L 138.197196 -203.840785 
L 137.302653 -204.224244 
L 136.408111 -204.607704 
L 135.513568 -204.991164 
L 134.619025 -205.374624 
L 133.724483 -205.758083 
L 132.82994 -206.141543 
L 131.935398 -206.525003 
L 131.040855 -206.908462 
L 130.146312 -207.291922 
L 129.25177 -207.675382 
L 128.357227 -208.058841 
L 127.462684 -208.442301 
L 126.568142 -208.825761 
L 125.673599 -209.209221 
L 124.779056 -209.59268 
L 123.884514 -209.97614 
L 122.989971 -210.3596 
L 122.095428 -210.743059 
L 121.200886 -211.126519 
L 120.306343 -211.509979 
L 119.411801 -211.893438 
L 118.517258 -212.276898 
L 117.622715 -212.660358 
L 116.728173 -213.043817 
L 115.83363 -213.427277 
L 114.939087 -213.810737 
L 114.044545 -214.194197 
L 113.150002 -214.577656 
L 112.255459 -214.961116 
L 111.360917 -215.344576 
L 110.466374 -215.728035 
L 109.571831 -216.111495 
L 108.677289 -216.494955 
L 107.782746 -216.878414 
L 106.888204 -217.261874 
L 105.993661 -217.645334 
L 105.099118 -218.028794 
L 104.204576 -218.412253 
L 103.310033 -218.795713 
L 102.41549 -219.179173 
L 101.520948 -219.562632 
L 100.626405 -219.946092 
L 99.731862 -220.329552 
L 98.83732 -220.713011 
L 97.942777 -221.096471 
L 97.048234 -221.479931 
L 96.153692 -221.863391 
L 95.259149 -222.24685 
L 94.364607 -222.63031 
L 93.470064 -223.01377 
L 92.575521 -223.397229 
L 91.680979 -223.780689 
L 90.786436 -224.164149 
L 89.891893 -224.547608 
L 88.997351 -224.931068 
L 88.102808 -225.314528 
L 87.208265 -225.697988 
L 86.313723 -226.081447 
L 85.41918 -226.464907 
L 84.524637 -226.848367 
L 83.630095 -227.231826 
L 82.735552 -227.615286 
L 81.84101 -227.998746 
L 80.946467 -228.382205 
L 80.051924 -228.765665 
L 79.157382 -229.149125 
L 78.262839 -229.532585 
L 77.368296 -229.916044 
L 76.473754 -230.299504 
L 75.579211 -230.682964 
L 74.684668 -231.066423 
L 73.790126 -231.449883 
L 72.895583 -231.833343 
L 72.00104 -232.216802 
L 71.106498 -232.600262 
L 70.211955 -232.983722 
L 69.317413 -233.367182 
L 68.42287 -233.750641 
L 67.528327 -234.134101 
L 66.633785 -234.517561 
L 65.739242 -234.90102 
L 64.844699 -235.28448 
z
" style="stroke: #dce8ef; stroke-opacity: 0.7"/>
    </defs>
    <g clip-path="url(#p58d1df6bf5)">
     <use xlink:href="#m8ae38f5fed" x="0" y="331.2" style="fill: #dce8ef; fill-opacity: 0.7; stroke: #dce8ef; stroke-opacity: 0.7"/>
    </g>
   </g>
   <g id="patch_3">
    <path d="M 55.944 278.208 
L 55.944 66.24 
" style="fill: none; stroke: #d9dee3; stroke-width: 0.8; stroke-linejoin: miter; stroke-linecap: square"/>
   </g>
   <g id="patch_4">
    <path d="M 55.944 278.208 
L 251.759385 278.208 
" style="fill: none; stroke: #d9dee3; stroke-width: 0.8; stroke-linejoin: miter; stroke-linecap: square"/>
   </g>
   <g id="line2d_14">
    <path d="M 64.844699 95.91552 
L 242.858685 172.224 
L 242.858685 172.224 
" clip-path="url(#p58d1df6bf5)" style="fill: none; stroke: #2d6282; stroke-width: 2.4; stroke-linecap: square"/>
   </g>
   <g id="text_10">
    <text style="font-size: 8.6px; font-family: 'Helvetica Neue', 'Helvetica', 'Arial', 'DejaVu Sans', sans-serif; text-anchor: start; fill: #2d6282" x="76.712298" y="83.311744" transform="rotate(-0 76.712298 83.311744)">0.80-0.90</text>
   </g>
   <g id="patch_5">
    <path d="M 187.563655 207.24861 
Q 214.365747 190.271807 240.317788 173.833438 
" style="fill: none; stroke: #2d6282; stroke-width: 0.9; stroke-linecap: round"/>
    <path d="M 236.491343 174.221147 
L 240.317788 173.833438 
L 238.332088 177.12722 
z
" style="fill: #2d6282; stroke: #2d6282; stroke-width: 0.9; stroke-linecap: round"/>
   </g>
   <g id="text_11">
    <text style="font-size: 8.6px; font-family: 'Helvetica Neue', 'Helvetica', 'Arial', 'DejaVu Sans', sans-serif; text-anchor: start; fill: #2d6282" x="162.752392" y="216.851584" transform="rotate(-0 162.752392 216.851584)">~0.50</text>
   </g>
   <g id="text_12">
    <text style="font-weight: 700; font-size: 10.5px; font-family: 'Helvetica Neue', 'Helvetica', 'Arial', 'DejaVu Sans', sans-serif; text-anchor: start; fill: #202124" x="55.944" y="58.24" transform="rotate(-0 55.944 58.24)">(A) Explanatory power</text>
   </g>
   <g id="PathCollection_1">
    <defs>
     <path id="m7c46b639d2" d="M 0 2.645751 
C 0.701661 2.645751 1.374679 2.366978 1.870829 1.870829 
C 2.366978 1.374679 2.645751 0.701661 2.645751 0 
C 2.645751 -0.701661 2.366978 -1.374679 1.870829 -1.870829 
C 1.374679 -2.366978 0.701661 -2.645751 0 -2.645751 
C -0.701661 -2.645751 -1.374679 -2.366978 -1.870829 -1.870829 
C -2.366978 -1.374679 -2.645751 -0.701661 -2.645751 0 
C -2.645751 0.701661 -2.366978 1.374679 -1.870829 1.870829 
C -1.374679 2.366978 -0.701661 2.645751 0 2.645751 
z
" style="stroke: #ffffff; stroke-width: 0.9"/>
    </defs>
    <g clip-path="url(#p58d1df6bf5)">
     <use xlink:href="#m7c46b639d2" x="64.844699" y="95.91552" style="fill: #2d6282; stroke: #ffffff; stroke-width: 0.9"/>
     <use xlink:href="#m7c46b639d2" x="242.858685" y="172.224" style="fill: #2d6282; stroke: #ffffff; stroke-width: 0.9"/>
    </g>
   </g>
  </g>
  <g id="axes_2">
   <g id="patch_6">
    <path d="M 318.336615 278.208 
L 514.152 278.208 
L 514.152 66.24 
L 318.336615 66.24 
z
" style="fill: #ffffff"/>
   </g>
   <g id="matplotlib.axis_3">
    <g id="xtick_4">
     <g id="line2d_15">
      <g>
       <use xlink:href="#md8f8fb0d6d" x="346.310242" y="278.208" style="fill: #626a73; stroke: #626a73; stroke-width: 0.7"/>
      </g>
     </g>
     <g id="text_13">
      <text style="font-size: 9.5px; font-family: 'Helvetica Neue', 'Helvetica', 'Arial', 'DejaVu Sans', sans-serif; text-anchor: middle; fill: #626a73" x="346.310242" y="291.925773" transform="rotate(-0 346.310242 291.925773)">2003</text>
     </g>
    </g>
    <g id="xtick_5">
     <g id="line2d_16">
      <g>
       <use xlink:href="#md8f8fb0d6d" x="416.244308" y="278.208" style="fill: #626a73; stroke: #626a73; stroke-width: 0.7"/>
      </g>
     </g>
     <g id="text_14">
      <text style="font-size: 9.5px; font-family: 'Helvetica Neue', 'Helvetica', 'Arial', 'DejaVu Sans', sans-serif; text-anchor: middle; fill: #626a73" x="416.244308" y="291.925773" transform="rotate(-0 416.244308 291.925773)">2008</text>
     </g>
    </g>
    <g id="xtick_6">
     <g id="line2d_17">
      <g>
       <use xlink:href="#md8f8fb0d6d" x="486.178374" y="278.208" style="fill: #626a73; stroke: #626a73; stroke-width: 0.7"/>
      </g>
     </g>
     <g id="text_15">
      <text style="font-size: 9.5px; font-family: 'Helvetica Neue', 'Helvetica', 'Arial', 'DejaVu Sans', sans-serif; text-anchor: middle; fill: #626a73" x="486.178374" y="291.925773" transform="rotate(-0 486.178374 291.925773)">2013</text>
     </g>
    </g>
   </g>
   <g id="matplotlib.axis_4">
    <g id="ytick_6">
     <g id="line2d_18">
      <path d="M 318.336615 278.208 
L 514.152 278.208 
" clip-path="url(#pa68b8d78ef)" style="fill: none; stroke: #d9dee3; stroke-opacity: 0.7; stroke-width: 0.7; stroke-linecap: square"/>
     </g>
     <g id="line2d_19">
      <g>
       <use xlink:href="#mc5a57186b2" x="318.336615" y="278.208" style="fill: #626a73; stroke: #626a73; stroke-width: 0.7"/>
      </g>
     </g>
     <g id="text_16">
      <text style="font-size: 9.5px; font-family: 'Helvetica Neue', 'Helvetica', 'Arial', 'DejaVu Sans', sans-serif; text-anchor: end; fill: #626a73" x="311.836615" y="281.816887" transform="rotate(-0 311.836615 281.816887)">0%</text>
     </g>
    </g>
    <g id="ytick_7">
     <g id="line2d_20">
      <path d="M 318.336615 235.8144 
L 514.152 235.8144 
" clip-path="url(#pa68b8d78ef)" style="fill: none; stroke: #d9dee3; stroke-opacity: 0.7; stroke-width: 0.7; stroke-linecap: square"/>
     </g>
     <g id="line2d_21">
      <g>
       <use xlink:href="#mc5a57186b2" x="318.336615" y="235.8144" style="fill: #626a73; stroke: #626a73; stroke-width: 0.7"/>
      </g>
     </g>
     <g id="text_17">
      <text style="font-size: 9.5px; font-family: 'Helvetica Neue', 'Helvetica', 'Arial', 'DejaVu Sans', sans-serif; text-anchor: end; fill: #626a73" x="311.836615" y="239.423287" transform="rotate(-0 311.836615 239.423287)">10%</text>
     </g>
    </g>
    <g id="ytick_8">
     <g id="line2d_22">
      <path d="M 318.336615 193.4208 
L 514.152 193.4208 
" clip-path="url(#pa68b8d78ef)" style="fill: none; stroke: #d9dee3; stroke-opacity: 0.7; stroke-width: 0.7; stroke-linecap: square"/>
     </g>
     <g id="line2d_23">
      <g>
       <use xlink:href="#mc5a57186b2" x="318.336615" y="193.4208" style="fill: #626a73; stroke: #626a73; stroke-width: 0.7"/>
      </g>
     </g>
     <g id="text_18">
      <text style="font-size: 9.5px; font-family: 'Helvetica Neue', 'Helvetica', 'Arial', 'DejaVu Sans', sans-serif; text-anchor: end; fill: #626a73" x="311.836615" y="197.029687" transform="rotate(-0 311.836615 197.029687)">20%</text>
     </g>
    </g>
    <g id="ytick_9">
     <g id="line2d_24">
      <path d="M 318.336615 151.0272 
L 514.152 151.0272 
" clip-path="url(#pa68b8d78ef)" style="fill: none; stroke: #d9dee3; stroke-opacity: 0.7; stroke-width: 0.7; stroke-linecap: square"/>
     </g>
     <g id="line2d_25">
      <g>
       <use xlink:href="#mc5a57186b2" x="318.336615" y="151.0272" style="fill: #626a73; stroke: #626a73; stroke-width: 0.7"/>
      </g>
     </g>
     <g id="text_19">
      <text style="font-size: 9.5px; font-family: 'Helvetica Neue', 'Helvetica', 'Arial', 'DejaVu Sans', sans-serif; text-anchor: end; fill: #626a73" x="311.836615" y="154.636087" transform="rotate(-0 311.836615 154.636087)">30%</text>
     </g>
    </g>
    <g id="ytick_10">
     <g id="line2d_26">
      <path d="M 318.336615 108.6336 
L 514.152 108.6336 
" clip-path="url(#pa68b8d78ef)" style="fill: none; stroke: #d9dee3; stroke-opacity: 0.7; stroke-width: 0.7; stroke-linecap: square"/>
     </g>
     <g id="line2d_27">
      <g>
       <use xlink:href="#mc5a57186b2" x="318.336615" y="108.6336" style="fill: #626a73; stroke: #626a73; stroke-width: 0.7"/>
      </g>
     </g>
     <g id="text_20">
      <text style="font-size: 9.5px; font-family: 'Helvetica Neue', 'Helvetica', 'Arial', 'DejaVu Sans', sans-serif; text-anchor: end; fill: #626a73" x="311.836615" y="112.242487" transform="rotate(-0 311.836615 112.242487)">40%</text>
     </g>
    </g>
    <g id="ytick_11">
     <g id="line2d_28">
      <path d="M 318.336615 66.24 
L 514.152 66.24 
" clip-path="url(#pa68b8d78ef)" style="fill: none; stroke: #d9dee3; stroke-opacity: 0.7; stroke-width: 0.7; stroke-linecap: square"/>
     </g>
     <g id="line2d_29">
      <g>
       <use xlink:href="#mc5a57186b2" x="318.336615" y="66.24" style="fill: #626a73; stroke: #626a73; stroke-width: 0.7"/>
      </g>
     </g>
     <g id="text_21">
      <text style="font-size: 9.5px; font-family: 'Helvetica Neue', 'Helvetica', 'Arial', 'DejaVu Sans', sans-serif; text-anchor: end; fill: #626a73" x="311.836615" y="69.848887" transform="rotate(-0 311.836615 69.848887)">50%</text>
     </g>
    </g>
    <g id="text_22">
     <text style="font-size: 10.5px; font-family: 'Helvetica Neue', 'Helvetica', 'Arial', 'DejaVu Sans', sans-serif; text-anchor: middle; fill: #202124" x="284.19892" y="172.224" transform="rotate(-90 284.19892 172.224)">Firms disclosing non-GAAP earnings</text>
    </g>
   </g>
   <g id="FillBetweenPolyCollection_2">
    <defs>
     <path id="m265ba3c370" d="M 346.310242 -137.7792 
L 346.310242 -52.992 
L 486.178374 -52.992 
L 486.178374 -222.5664 
L 486.178374 -222.5664 
L 346.310242 -137.7792 
z
" style="stroke: #f1e2e0; stroke-opacity: 0.7"/>
    </defs>
    <g clip-path="url(#pa68b8d78ef)">
     <use xlink:href="#m265ba3c370" x="0" y="331.2" style="fill: #f1e2e0; fill-opacity: 0.7; stroke: #f1e2e0; stroke-opacity: 0.7"/>
    </g>
   </g>
   <g id="patch_7">
    <path d="M 318.336615 278.208 
L 318.336615 66.24 
" style="fill: none; stroke: #d9dee3; stroke-width: 0.8; stroke-linejoin: miter; stroke-linecap: square"/>
   </g>
   <g id="patch_8">
    <path d="M 318.336615 278.208 
L 514.152 278.208 
" style="fill: none; stroke: #d9dee3; stroke-width: 0.8; stroke-linejoin: miter; stroke-linecap: square"/>
   </g>
   <g id="line2d_30">
    <path d="M 346.310242 193.4208 
L 486.178374 108.6336 
" clip-path="url(#pa68b8d78ef)" style="fill: none; stroke: #b24a45; stroke-width: 2.4; stroke-linecap: square"/>
    <defs>
     <path id="m3906967a61" d="M 0 3 
C 0.795609 3 1.55874 2.683901 2.12132 2.12132 
C 2.683901 1.55874 3 0.795609 3 0 
C 3 -0.795609 2.683901 -1.55874 2.12132 -2.12132 
C 1.55874 -2.683901 0.795609 -3 0 -3 
C -0.795609 -3 -1.55874 -2.683901 -2.12132 -2.12132 
C -2.683901 -1.55874 -3 -0.795609 -3 0 
C -3 0.795609 -2.683901 1.55874 -2.12132 2.12132 
C -1.55874 2.683901 -0.795609 3 0 3 
z
" style="stroke: #b24a45; stroke-width: 1.4"/>
    </defs>
    <g clip-path="url(#pa68b8d78ef)">
     <use xlink:href="#m3906967a61" x="346.310242" y="193.4208" style="fill: #ffffff; stroke: #b24a45; stroke-width: 1.4"/>
     <use xlink:href="#m3906967a61" x="486.178374" y="108.6336" style="fill: #ffffff; stroke: #b24a45; stroke-width: 1.4"/>
    </g>
   </g>
   <g id="text_23">
    <text style="font-size: 9px; font-family: 'Helvetica Neue', 'Helvetica', 'Arial', 'DejaVu Sans', sans-serif; text-anchor: start; fill: #b24a45" x="350.506286" y="229.673571" transform="rotate(-0 350.506286 229.673571)">20%</text>
   </g>
   <g id="text_24">
    <text style="font-size: 9px; font-family: 'Helvetica Neue', 'Helvetica', 'Arial', 'DejaVu Sans', sans-serif; text-anchor: end; fill: #b24a45" x="481.98233" y="89.774691" transform="rotate(-0 481.98233 89.774691)">40%</text>
   </g>
   <g id="text_25">
    <text style="font-weight: 700; font-size: 8.6px; font-family: 'Helvetica Neue', 'Helvetica', 'Arial', 'DejaVu Sans', sans-serif; fill: #202124" transform="translate(328.127385 94.832296)">doubled in</text>
    <text style="font-weight: 700; font-size: 8.6px; font-family: 'Helvetica Neue', 'Helvetica', 'Arial', 'DejaVu Sans', sans-serif; fill: #202124" transform="translate(328.127385 105.154648)">a decade</text>
   </g>
   <g id="text_26">
    <text style="font-weight: 700; font-size: 10.5px; font-family: 'Helvetica Neue', 'Helvetica', 'Arial', 'DejaVu Sans', sans-serif; text-anchor: start; fill: #202124" x="318.336615" y="58.24" transform="rotate(-0 318.336615 58.24)">(B) The work-around</text>
   </g>
  </g>
  <g id="text_27">
   <text style="font-weight: 700; font-size: 13px; font-family: 'Helvetica Neue', 'Helvetica', 'Arial', 'DejaVu Sans', sans-serif; text-anchor: start; fill: #202124" x="34.632" y="24.780953" transform="rotate(-0 34.632 24.780953)">THE END OF ACCOUNTING</text>
  </g>
  <g id="text_28">
   <text style="font-size: 10px; font-family: 'Helvetica Neue', 'Helvetica', 'Arial', 'DejaVu Sans', sans-serif; text-anchor: start; fill: #626a73" x="34.632" y="39.062437" transform="rotate(-0 34.632 39.062437)">One erosion, two readings: relevance falls as work-arounds rise.</text>
  </g>
  <g id="text_29">
   <text style="font-size: 7.6px; font-family: 'DejaVu Sans Mono', 'Bitstream Vera Sans Mono', 'Computer Modern Typewriter', 'Andale Mono', 'Nimbus Mono L', 'Courier New', 'Courier', 'Fixed', 'Terminal', monospace; text-anchor: start; fill: #626a73" x="55.944" y="316.296" transform="rotate(-0 55.944 316.296)">source: Lev &amp; Gu, The End of Accounting (2016)  |  R² endpoints cited; path schematic</text>
  </g>
 </g>
 <defs>
  <clipPath id="p58d1df6bf5">
   <rect x="55.944" y="66.24" width="195.815385" height="211.968"/>
  </clipPath>
  <clipPath id="pa68b8d78ef">
   <rect x="318.336615" y="66.24" width="195.815385" height="211.968"/>
  </clipPath>
 </defs>
</svg>
