<svg xmlns="http://www.w3.org/2000/svg" viewBox="0 0 1600.64 310"><defs><style>.cls-1{fill:#fff;}</style></defs><g id="Layer_2" data-name="Layer 2"><g id="Layer_1-2" data-name="Layer 1"><path class="cls-1" d="M538.81,233.15q-32,0-52.42-22.13T466,154.78q0-34.31,19.91-56.76T538.6,75.56q27.1,0,43.53,14.3t19,36.75h-30.5Q568.46,115,560.1,108.18t-21.5-6.78q-20.13,0-30.71,14.83T497.3,154.78q0,23.52,11.33,38.34T538.81,208q13.35,0,22.24-7.31a28.6,28.6,0,0,0,10.38-19.38h30.08a51.39,51.39,0,0,1-16.73,35.8Q567.62,233.15,538.81,233.15Z"/><path class="cls-1" d="M724.36,216.74q-15.89,16.41-40.88,16.41T642.6,216.74q-15.89-16.41-15.89-41t15.89-41q15.89-16.43,40.88-16.42t40.88,16.42q15.89,16.41,15.89,41T724.36,216.74Zm-40.88-5.61q12.91,0,20.23-9.64T711,175.75q0-16.09-7.31-25.84t-20.23-9.74q-13.14,0-20.34,9.64t-7.2,25.94q0,16.11,7.2,25.74T683.48,211.13Z"/><path class="cls-1" d="M769.47,230V121.32h27.75v14.61h.64q10.38-17.58,31.56-17.58a32.37,32.37,0,0,1,18.11,5.19,32.77,32.77,0,0,1,12,13.87h.42q11.87-19.06,32.62-19.06,17,0,26.37,10.27t9.43,28.28V230H899.53V161.77q0-18.63-16.73-18.64-9.12,0-14.3,6.46t-5.19,17.27V230H834.5V161.77q0-18.63-16.73-18.64a17.53,17.53,0,0,0-14.09,6.46q-5.4,6.47-5.4,17.27V230Z"/><path class="cls-1" d="M962,265.56V121.32h27.75v13.55h.63q12.08-16.52,32-16.52,21.41,0,34.32,15.89t12.92,41.51q0,26.26-12.92,41.84t-34.1,15.56q-21.18,0-31.35-15.46h-.43v47.87Zm54.43-56.34a20.64,20.64,0,0,0,17.48-8.69q6.45-8.67,6.46-23.93,0-16.31-6.14-25.63t-18.86-9.32q-12.92,0-19.06,9.64t-6.14,25.31q0,15,6.78,23.83T1016.45,209.22Z"/><path class="cls-1" d="M1191.2,216.74q-15.89,16.41-40.88,16.41t-40.88-16.41q-15.89-16.41-15.89-41t15.89-41q15.88-16.43,40.88-16.42t40.88,16.42q15.88,16.41,15.89,41T1191.2,216.74Zm-40.88-5.61q12.92,0,20.23-9.64t7.31-25.74q0-16.09-7.31-25.84t-20.23-9.74q-13.14,0-20.33,9.64t-7.2,25.94q0,16.11,7.2,25.74T1150.32,211.13Z"/><path class="cls-1" d="M1332.69,230H1305V217.27h-.64a39.9,39.9,0,0,1-13,11.86q-7.1,3.81-18.11,3.81-17.79,0-27.74-10.59t-10-28.59V121.32h28.6v67.57q0,19.7,18,19.69,10,0,15.89-6.77t5.93-17.8V121.32h28.8Z"/><path class="cls-1" d="M1395.39,121.32v14.82h.64q11.22-17.79,32.2-17.79,16.73,0,27.11,11.33T1465.72,159v71h-28.81V163.26c0-5.94-1.66-10.73-5-14.41s-7.94-5.51-13.87-5.51a20.24,20.24,0,0,0-15.78,7q-6.26,7-6.25,18V230h-28.81V121.32Z"/><path class="cls-1" d="M1540.06,233.15q-20.55,0-33.25-15.56t-12.71-41.84q0-25.41,13-41.41t33.36-16q20.33,0,30.71,16.1h.64V78.53h28.8V230h-27.75V215.79h-.42Q1561.88,233.16,1540.06,233.15Zm6.36-24.14q12.7,0,19.38-8.69t6.67-23.93q0-34.74-25.21-34.74-11.64,0-17.79,9.32t-6.14,24.78q0,15.88,6,24.57T1546.42,209Z"/><path class="cls-1" d="M172.3,73.5h-.12a5.85,5.85,0,0,0-4.72,2.95l-6.35,11v0l-.74,1.29h0a29.25,29.25,0,1,1,.16-30.22l.42.72h0l6.51,11.28A5.87,5.87,0,0,0,172.3,73.5Z"/><path class="cls-1" d="M239,73.51a29.24,29.24,0,0,1-54.19,15.25l-.74-1.29s0,0,0,0l-6.34-11A5.85,5.85,0,0,0,173,73.51h-.12a5.87,5.87,0,0,0,4.85-3l6.51-11.28h0l.42-.72v0a29.24,29.24,0,0,1,54.35,15Z"/><path class="cls-1" d="M103.25,192.94l-.06-.1a5.88,5.88,0,0,0-4.92-2.62H84.06a29.24,29.24,0,1,1,26.26-15l-.42.72h0l-6.51,11.28A5.85,5.85,0,0,0,103.25,192.94Z"/><path class="cls-1" d="M136.59,250.7a29.24,29.24,0,0,1-40.3-39.3l.75-1.29a0,0,0,0,1,0,0l6.35-11a5.87,5.87,0,0,0,.19-5.57l-.06-.1a5.88,5.88,0,0,0,5,2.71H122.4a29.24,29.24,0,0,1,14.19,54.56Z"/><path class="cls-1" d="M241.71,192.94l.06-.1a5.88,5.88,0,0,1,4.92-2.62H260.9a29.23,29.23,0,1,0-26.27-15l.42.72h0l6.51,11.28A5.85,5.85,0,0,1,241.71,192.94Z"/><path class="cls-1" d="M208.37,250.7a29.24,29.24,0,0,0,40.3-39.3l-.75-1.29a0,0,0,0,0,0,0l-6.35-11a5.87,5.87,0,0,1-.19-5.57l.06-.1a5.88,5.88,0,0,1-5,2.71H222.56a29.24,29.24,0,0,0-14.19,54.56Z"/><path class="cls-1" d="M172.57,266.92h.18a8.63,8.63,0,0,0,7-4.34l9.35-16.19s0,0,0,0l1.1-1.9h0a43.09,43.09,0,1,1-.25,44.55l-.62-1.07h0l-9.6-16.62A8.61,8.61,0,0,0,172.57,266.92Z"/><path class="cls-1" d="M74.28,266.91a43.1,43.1,0,0,1,79.86-22.48l1.09,1.91a.05.05,0,0,1,0,0l9.36,16.19a8.61,8.61,0,0,0,7,4.34h.18a8.61,8.61,0,0,0-7.14,4.36L155,287.9h0l-.62,1.07v0a43.1,43.1,0,0,1-80.09-22.1Z"/><path class="cls-1" d="M274.34,90.9l.09.15a8.63,8.63,0,0,0,7.24,3.86h20.95A43.08,43.08,0,1,1,263.91,117l.62-1.08h0l9.6-16.62A8.65,8.65,0,0,0,274.34,90.9Z"/><path class="cls-1" d="M225.2,5.78a43.09,43.09,0,0,1,59.39,57.91l-1.1,1.91s0,0,0,0l-9.35,16.2a8.64,8.64,0,0,0-.28,8.2l.08.16a8.61,8.61,0,0,0-7.33-4H246.11A43.09,43.09,0,0,1,225.2,5.78Z"/><path class="cls-1" d="M70.29,90.9l-.1.15A8.61,8.61,0,0,1,63,94.91H42A43.09,43.09,0,1,0,80.71,117l-.62-1.08h0l-9.6-16.62A8.62,8.62,0,0,1,70.29,90.9Z"/><path class="cls-1" d="M119.42,5.78A43.09,43.09,0,0,0,60,63.69l1.1,1.91,0,0,9.35,16.2a8.61,8.61,0,0,1,.28,8.2l-.08.16a8.63,8.63,0,0,1,7.34-4H98.51a43.09,43.09,0,0,0,20.91-80.4Z"/></g></g></svg>